# Blender 4.4.3
# www.blender.org
mtllib Rusty_pipe.mtl
o Rusty_pipe
v 0.010606 0.023226 -0.004393
v 0.011480 0.023226 0.000000
v -0.000000 0.023226 0.000000
v 0.016098 -0.000000 -0.006668
v 0.016098 0.499729 -0.006668
v 0.017425 0.499729 -0.000000
v 0.017425 -0.000000 0.000000
v 0.052400 0.510936 -0.004393
v 0.052400 0.521542 -0.000000
v 0.052400 0.510062 -0.000000
v 0.008118 0.023226 -0.008118
v 0.012321 -0.000000 -0.012321
v 0.012321 0.499729 -0.012321
v 0.052400 0.513425 -0.008118
v 0.004393 0.023226 -0.010606
v 0.006668 -0.000000 -0.016098
v 0.006668 0.499729 -0.016098
v 0.052400 0.517149 -0.010606
v -0.000000 0.023226 -0.011480
v -0.000000 -0.000000 -0.017425
v -0.000000 0.499729 -0.017425
v 0.052400 0.521542 -0.011480
v -0.004393 0.023226 -0.010606
v -0.006668 -0.000000 -0.016098
v -0.006668 0.499729 -0.016098
v 0.052400 0.525936 -0.010606
v -0.008118 0.023226 -0.008118
v -0.012321 -0.000000 -0.012321
v -0.012321 0.499729 -0.012321
v 0.052400 0.529660 -0.008118
v -0.010606 0.023226 -0.004393
v -0.016098 -0.000000 -0.006668
v -0.016098 0.499729 -0.006668
v 0.052400 0.532149 -0.004393
v -0.011480 0.023226 0.000000
v -0.017425 -0.000000 0.000000
v -0.017425 0.499729 -0.000000
v 0.052400 0.533022 -0.000000
v -0.010606 0.023226 0.004393
v -0.016098 -0.000000 0.006668
v -0.016098 0.499729 0.006668
v 0.052400 0.532149 0.004393
v -0.008118 0.023226 0.008118
v -0.012321 -0.000000 0.012321
v -0.012321 0.499729 0.012321
v 0.052400 0.529660 0.008118
v -0.004393 0.023226 0.010606
v -0.006668 -0.000000 0.016098
v -0.006668 0.499729 0.016098
v 0.052400 0.525936 0.010606
v -0.000000 0.023226 0.011480
v -0.000000 -0.000000 0.017425
v -0.000000 0.499729 0.017425
v 0.052400 0.521542 0.011480
v 0.004393 0.023226 0.010606
v 0.006668 -0.000000 0.016098
v 0.006668 0.499729 0.016098
v 0.052400 0.517149 0.010606
v 0.008118 0.023226 0.008118
v 0.012321 -0.000000 0.012321
v 0.012321 0.499729 0.012321
v 0.052400 0.513425 0.008118
v 0.010606 0.023226 0.004393
v 0.016098 -0.000000 0.006668
v 0.016098 0.499729 0.006668
v 0.052400 0.510936 0.004393
v 0.018188 0.502411 -0.000000
v 0.017040 0.503074 -0.006668
v 0.013769 0.504963 -0.012321
v 0.008873 0.507789 -0.016098
v 0.003098 0.511123 -0.017425
v -0.002676 0.514457 -0.016098
v -0.007572 0.517284 -0.012321
v -0.010843 0.519172 -0.006668
v -0.011992 0.519836 -0.000000
v -0.010843 0.519172 0.006668
v -0.007572 0.517284 0.012321
v -0.002676 0.514457 0.016098
v 0.003098 0.511123 0.017425
v 0.008873 0.507789 0.016098
v 0.013769 0.504963 0.012321
v 0.017040 0.503074 0.006668
v 0.020446 0.503954 -0.000000
v 0.019783 0.505102 -0.006668
v 0.017894 0.508373 -0.012321
v 0.015068 0.513269 -0.016098
v 0.011734 0.519044 -0.017425
v 0.008400 0.524819 -0.016098
v 0.005573 0.529714 -0.012321
v 0.003684 0.532985 -0.006668
v 0.003021 0.534134 -0.000000
v 0.003684 0.532985 0.006668
v 0.005573 0.529714 0.012321
v 0.008400 0.524819 0.016098
v 0.011734 0.519044 0.017425
v 0.015068 0.513269 0.016098
v 0.017894 0.508373 0.012321
v 0.019783 0.505102 0.006668
v 0.023521 0.504118 -0.000000
v 0.023521 0.505444 -0.006668
v 0.023521 0.509221 -0.012321
v 0.023521 0.514874 -0.016098
v 0.023521 0.521542 -0.017425
v 0.023521 0.528210 -0.016098
v 0.023521 0.533863 -0.012321
v 0.023521 0.537640 -0.006668
v 0.023521 0.538967 -0.000000
v 0.023521 0.537640 0.006668
v 0.023521 0.533863 0.012321
v 0.023521 0.528210 0.016098
v 0.023521 0.521542 0.017425
v 0.023521 0.514874 0.016098
v 0.023521 0.509221 0.012321
v 0.023521 0.505444 0.006668
v 0.075626 0.504118 -0.000000
v 0.075626 0.505444 -0.006668
v 0.075626 0.509221 -0.012321
v 0.075626 0.514874 -0.016098
v 0.075626 0.521542 -0.017425
v 0.075626 0.528210 -0.016098
v 0.075626 0.533863 -0.012321
v 0.075626 0.537640 -0.006668
v 0.075626 0.538967 -0.000000
v 0.075626 0.537640 0.006668
v 0.075626 0.533863 0.012321
v 0.075626 0.528210 0.016098
v 0.075626 0.521542 0.017425
v 0.075626 0.514874 0.016098
v 0.075626 0.509221 0.012321
v 0.075626 0.505444 0.006668
v 0.010606 -0.000000 -0.004393
v 0.011480 -0.000000 0.000000
v 0.008118 -0.000000 -0.008118
v 0.004393 -0.000000 -0.010606
v -0.000000 -0.000000 -0.011480
v -0.004393 -0.000000 -0.010606
v -0.008118 -0.000000 -0.008118
v -0.010606 -0.000000 -0.004393
v -0.011480 -0.000000 0.000000
v -0.010606 -0.000000 0.004393
v -0.008118 -0.000000 0.008118
v -0.004393 -0.000000 0.010606
v -0.000000 -0.000000 0.011480
v 0.004393 -0.000000 0.010606
v 0.008118 -0.000000 0.008118
v 0.010606 -0.000000 0.004393
v 0.075626 0.510062 -0.000000
v 0.075626 0.510936 -0.004393
v 0.075626 0.513425 -0.008118
v 0.075626 0.517149 -0.010606
v 0.075626 0.521542 -0.011480
v 0.075626 0.525936 -0.010606
v 0.075626 0.529660 -0.008118
v 0.075626 0.532149 -0.004393
v 0.075626 0.533022 -0.000000
v 0.075626 0.532149 0.004393
v 0.075626 0.529660 0.008118
v 0.075626 0.525936 0.010606
v 0.075626 0.521542 0.011480
v 0.075626 0.517149 0.010606
v 0.075626 0.513425 0.008118
v 0.075626 0.510936 0.004393
v -0.016098 0.320558 -0.006668
v -0.016098 0.176307 -0.006668
v -0.012321 0.320558 -0.012321
v -0.012321 0.176307 -0.012321
v -0.006668 0.320558 -0.016098
v -0.006668 0.176307 -0.016098
v -0.000000 0.320558 -0.017425
v -0.000000 0.176307 -0.017425
v 0.006668 0.320558 -0.016098
v 0.006668 0.176307 -0.016098
v 0.012321 0.320558 -0.012321
v 0.012321 0.176307 -0.012321
v 0.016098 0.320558 -0.006668
v 0.016098 0.176307 -0.006668
v 0.017425 0.176307 -0.000000
v 0.017425 0.320558 -0.000000
v 0.017425 0.016209 0.000000
v 0.016098 0.016209 -0.006668
v 0.012321 0.016209 -0.012321
v 0.006668 0.016209 -0.016098
v -0.000000 0.016209 -0.017425
v -0.006668 0.016209 -0.016098
v -0.012321 0.016209 -0.012321
v -0.016098 0.016209 -0.006668
v -0.017425 0.016209 0.000000
v -0.016098 0.016209 0.006668
v -0.012321 0.016209 0.012321
v -0.006668 0.016209 0.016098
v -0.000000 0.016209 0.017425
v 0.006668 0.016209 0.016098
v 0.012321 0.016209 0.012321
v 0.016098 0.016209 0.006668
v 0.016098 0.032055 -0.006668
v 0.012321 0.032055 -0.012321
v 0.006668 0.032055 -0.016098
v -0.000000 0.032055 -0.017425
v -0.006668 0.032055 -0.016098
v -0.012321 0.032055 -0.012321
v -0.016098 0.032055 -0.006668
v -0.017425 0.032055 0.000000
v -0.016098 0.032055 0.006668
v -0.012321 0.032055 0.012321
v -0.006668 0.032055 0.016098
v -0.000000 0.032055 0.017425
v 0.006668 0.032055 0.016098
v 0.012321 0.032055 0.012321
v 0.016098 0.032055 0.006668
v 0.017425 0.032055 0.000000
v 0.016098 0.480671 -0.006668
v 0.012321 0.480671 -0.012321
v 0.006668 0.480671 -0.016098
v -0.000000 0.480671 -0.017425
v -0.006668 0.480671 -0.016098
v -0.012321 0.480671 -0.012321
v -0.016098 0.480671 -0.006668
v -0.017425 0.480671 -0.000000
v -0.016098 0.480671 0.006668
v -0.012321 0.480671 0.012321
v -0.006668 0.480671 0.016098
v -0.000000 0.480671 0.017425
v 0.006668 0.480671 0.016098
v 0.012321 0.480671 0.012321
v 0.016098 0.480671 0.006668
v 0.017425 0.480671 -0.000000
v 0.017425 0.464810 -0.000000
v 0.016098 0.464810 -0.006668
v 0.012321 0.464810 -0.012321
v 0.006668 0.464810 -0.016098
v -0.000000 0.464810 -0.017425
v -0.006668 0.464810 -0.016098
v -0.012321 0.464810 -0.012321
v -0.016098 0.464810 -0.006668
v -0.017425 0.464810 -0.000000
v -0.016098 0.464810 0.006668
v -0.012321 0.464810 0.012321
v -0.006668 0.464810 0.016098
v -0.000000 0.464810 0.017425
v 0.006668 0.464810 0.016098
v 0.012321 0.464810 0.012321
v 0.016098 0.464810 0.006668
v 0.038411 0.504118 -0.000000
v 0.038411 0.505444 -0.006668
v 0.038411 0.509221 -0.012321
v 0.038411 0.514874 -0.016098
v 0.038411 0.521542 -0.017425
v 0.038411 0.528210 -0.016098
v 0.038411 0.533863 -0.012321
v 0.038411 0.537640 -0.006668
v 0.038411 0.538967 -0.000000
v 0.038411 0.537640 0.006668
v 0.038411 0.533863 0.012321
v 0.038411 0.528210 0.016098
v 0.038411 0.521542 0.017425
v 0.038411 0.514874 0.016098
v 0.038411 0.509221 0.012321
v 0.038411 0.505444 0.006668
v 0.052661 0.504118 -0.000000
v 0.052661 0.505444 -0.006668
v 0.052661 0.509221 -0.012321
v 0.052661 0.514874 -0.016098
v 0.052661 0.521542 -0.017425
v 0.052661 0.528210 -0.016098
v 0.052661 0.533863 -0.012321
v 0.052661 0.537640 -0.006668
v 0.052661 0.538967 -0.000000
v 0.052661 0.537640 0.006668
v 0.052661 0.533863 0.012321
v 0.052661 0.528210 0.016098
v 0.052661 0.521542 0.017425
v 0.052661 0.514874 0.016098
v 0.052661 0.509221 0.012321
v 0.052661 0.505444 0.006668
v 0.019892 0.032055 0.000000
v 0.019892 0.016209 0.000000
v 0.018377 0.016209 -0.007612
v 0.018377 0.016209 0.007612
v 0.014066 0.016209 0.014066
v 0.007612 0.016209 0.018378
v -0.000000 0.016209 0.019892
v -0.007612 0.016209 0.018378
v -0.014066 0.016209 0.014066
v -0.018378 0.016209 0.007612
v -0.019892 0.016209 0.000000
v -0.018378 0.016209 -0.007612
v -0.014066 0.016209 -0.014066
v -0.007612 0.016209 -0.018377
v -0.000000 0.016209 -0.019892
v 0.007612 0.016209 -0.018377
v 0.014066 0.016209 -0.014066
v 0.018377 0.032055 -0.007612
v 0.014066 0.032055 -0.014066
v 0.007612 0.032055 -0.018377
v -0.000000 0.032055 -0.019892
v -0.007612 0.032055 -0.018377
v -0.014066 0.032055 -0.014066
v -0.018378 0.032055 -0.007612
v -0.019892 0.032055 0.000000
v -0.018378 0.032055 0.007612
v -0.014066 0.032055 0.014066
v -0.007612 0.032055 0.018378
v -0.000000 0.032055 0.019892
v 0.007612 0.032055 0.018378
v 0.014066 0.032055 0.014066
v 0.018377 0.032055 0.007612
v 0.018377 0.464810 -0.007612
v 0.018377 0.480671 -0.007612
v 0.014066 0.464810 -0.014066
v 0.014066 0.480671 -0.014066
v 0.007612 0.464810 -0.018378
v 0.007612 0.480671 -0.018378
v -0.000000 0.464810 -0.019892
v -0.000000 0.480671 -0.019892
v -0.007612 0.464810 -0.018378
v -0.007612 0.480671 -0.018378
v -0.014066 0.464810 -0.014066
v -0.014066 0.480671 -0.014066
v -0.018378 0.464810 -0.007612
v -0.018378 0.480671 -0.007612
v -0.019892 0.464810 -0.000000
v -0.019892 0.480671 -0.000000
v -0.018378 0.464810 0.007612
v -0.018378 0.480671 0.007612
v -0.014066 0.464810 0.014066
v -0.014066 0.480671 0.014066
v -0.007612 0.464810 0.018377
v -0.007612 0.480671 0.018377
v -0.000000 0.464810 0.019892
v -0.000000 0.480671 0.019892
v 0.007612 0.464810 0.018377
v 0.007612 0.480671 0.018377
v 0.014066 0.464810 0.014066
v 0.014066 0.480671 0.014066
v 0.018377 0.464810 0.007612
v 0.018377 0.480671 0.007612
v 0.019892 0.480671 -0.000000
v 0.019892 0.464810 -0.000000
v 0.038411 0.501651 -0.000000
v 0.038411 0.503165 0.007612
v 0.038411 0.507477 0.014066
v 0.038411 0.513930 0.018377
v 0.038411 0.521542 0.019892
v 0.038411 0.529154 0.018377
v 0.038411 0.535608 0.014066
v 0.038411 0.539920 0.007612
v 0.038411 0.541434 -0.000000
v 0.038411 0.539920 -0.007612
v 0.038411 0.535608 -0.014066
v 0.038411 0.529154 -0.018378
v 0.038411 0.521542 -0.019892
v 0.038411 0.513930 -0.018378
v 0.038411 0.507477 -0.014066
v 0.038411 0.503165 -0.007612
v 0.052661 0.501651 -0.000000
v 0.052661 0.503165 -0.007612
v 0.052661 0.507477 -0.014066
v 0.052661 0.513930 -0.018378
v 0.052661 0.521542 -0.019892
v 0.052661 0.529154 -0.018378
v 0.052661 0.535608 -0.014066
v 0.052661 0.539920 -0.007612
v 0.052661 0.541434 -0.000000
v 0.052661 0.539920 0.007612
v 0.052661 0.535608 0.014066
v 0.052661 0.529154 0.018377
v 0.052661 0.521542 0.019892
v 0.052661 0.513930 0.018377
v 0.052661 0.507477 0.014066
v 0.052661 0.503165 0.007612
v -0.017425 0.176307 -0.000000
v -0.017425 0.320558 -0.000000
v -0.016098 0.176307 0.006668
v -0.016098 0.320558 0.006668
v -0.012321 0.176307 0.012321
v -0.012321 0.320558 0.012321
v -0.006668 0.176307 0.016098
v -0.006668 0.320558 0.016098
v -0.000000 0.176307 0.017425
v -0.000000 0.320558 0.017425
v 0.006668 0.176307 0.016098
v 0.006668 0.320558 0.016098
v 0.012321 0.176307 0.012321
v 0.012321 0.320558 0.012321
v 0.016098 0.176307 0.006668
v 0.016098 0.320558 0.006668
vn -0.0000 -1.0000 -0.0000
vn 0.7092 -0.0000 -0.7050
vn 0.9244 -0.0009 -0.3814
vn 0.9239 -0.0000 -0.3827
vn 0.7071 -0.0000 -0.7071
vn 1.0000 -0.0000 -0.0000
vn 0.3863 -0.0001 -0.9224
vn 0.3827 -0.0000 -0.9239
vn 0.0043 -0.0001 -1.0000
vn -0.0000 -0.0000 -1.0000
vn -0.3791 -0.0001 -0.9254
vn -0.3827 -0.0000 -0.9239
vn -0.7051 -0.0000 -0.7091
vn -0.7071 -0.0000 -0.7071
vn -0.9235 -0.0010 -0.3836
vn -0.9239 -0.0000 -0.3827
vn -1.0000 -0.0003 -0.0004
vn -1.0000 -0.0000 -0.0000
vn -0.9244 -0.0006 0.3814
vn -0.9239 -0.0000 0.3827
vn -0.7090 -0.0011 0.7052
vn -0.7071 -0.0000 0.7071
vn -0.3860 -0.0014 0.9225
vn -0.3827 -0.0000 0.9239
vn -0.0040 -0.0015 1.0000
vn -0.0000 -0.0000 1.0000
vn 0.3792 -0.0014 0.9253
vn 0.3827 -0.0000 0.9239
vn 0.7051 -0.0011 0.7091
vn 0.7071 -0.0000 0.7071
vn 0.9233 -0.0006 0.3840
vn 0.9239 -0.0000 0.3827
vn 1.0000 -0.0003 0.0004
vn 0.9133 -0.1338 -0.3848
vn 0.6978 -0.0844 -0.7113
vn 0.5864 -0.3841 -0.7131
vn 0.7585 -0.5221 -0.3899
vn 0.3742 -0.0348 -0.9267
vn 0.3203 -0.2017 -0.9256
vn -0.0078 0.0191 -0.9998
vn -0.0006 -0.0005 -1.0000
vn -0.3886 0.0687 -0.9188
vn -0.3260 0.1960 -0.9248
vn -0.7083 0.1063 -0.6979
vn -0.6049 0.3619 -0.7093
vn -0.9187 0.1270 -0.3740
vn -0.7929 0.4726 -0.3846
vn -0.9916 0.1296 0.0021
vn -0.8594 0.5112 -0.0000
vn -0.9196 0.1146 0.3757
vn -0.7929 0.4727 0.3845
vn -0.7142 0.0841 0.6949
vn -0.6052 0.3619 0.7091
vn -0.4021 0.0409 0.9147
vn -0.3262 0.1962 0.9247
vn -0.0251 -0.0103 0.9996
vn -0.0005 -0.0006 1.0000
vn 0.3605 -0.0622 0.9307
vn 0.3212 -0.2027 0.9251
vn 0.6915 -0.1062 0.7146
vn 0.5878 -0.3858 0.7111
vn 0.9129 -0.1341 0.3856
vn 0.7591 -0.5230 0.3877
vn 0.9902 -0.1399 -0.0020
vn 0.8170 -0.5766 -0.0005
vn 0.3313 -0.8622 -0.3832
vn 0.3383 -0.9410 -0.0009
vn 0.2817 -0.6466 -0.7089
vn 0.1641 -0.3437 -0.9246
vn -0.0013 -0.0006 -1.0000
vn -0.1785 0.3370 -0.9244
vn -0.3332 0.6223 -0.7083
vn -0.4386 0.8126 -0.3837
vn -0.4757 0.8796 -0.0000
vn -0.4386 0.8127 0.3836
vn -0.3336 0.6225 0.7079
vn -0.1788 0.3376 0.9242
vn -0.0013 -0.0008 1.0000
vn 0.1650 -0.3461 0.9236
vn 0.2829 -0.6505 0.7048
vn 0.3317 -0.8639 0.3791
vn 0.0440 -0.9251 -0.3771
vn 0.0362 -0.9993 -0.0004
vn 0.0502 -0.7102 -0.7022
vn 0.0345 -0.3850 -0.9223
vn -0.0008 -0.0001 -1.0000
vn -0.0432 0.3835 -0.9225
vn -0.0810 0.7059 -0.7037
vn -0.1065 0.9190 -0.3797
vn -0.1150 0.9934 -0.0000
vn -0.1065 0.9191 0.3795
vn -0.0811 0.7061 0.7035
vn -0.0433 0.3838 0.9224
vn -0.0008 -0.0003 1.0000
vn 0.0347 -0.3864 0.9217
vn 0.0503 -0.7123 0.7000
vn 0.0439 -0.9260 0.3751
vn 0.0001 -0.9237 -0.3831
vn -0.0000 -0.9239 -0.3827
vn 0.0001 -0.7061 -0.7081
vn -0.0000 -0.7071 -0.7071
vn 0.0019 -0.3809 -0.9246
vn -0.0000 -0.3827 -0.9239
vn 0.0023 0.0024 -1.0000
vn 0.0023 0.3849 -0.9230
vn -0.0000 0.3827 -0.9239
vn 0.0017 0.7084 -0.7058
vn -0.0000 0.7071 -0.7071
vn -0.0000 0.9243 -0.3816
vn -0.0000 0.9239 -0.3827
vn 0.0001 1.0000 0.0004
vn -0.0000 1.0000 -0.0000
vn 0.0004 0.9235 0.3837
vn -0.0000 0.9239 0.3827
vn 0.0009 0.7056 0.7087
vn -0.0000 0.7071 0.7071
vn 0.0013 0.3800 0.9250
vn -0.0000 0.3827 0.9239
vn 0.0014 -0.0031 1.0000
vn 0.0012 -0.3852 0.9228
vn -0.0000 -0.3827 0.9239
vn 0.0008 -0.7086 0.7056
vn -0.0000 -0.7071 0.7071
vn 0.0003 -0.9242 0.3818
vn -0.0000 -0.9239 0.3827
vn 0.9238 0.0033 0.3829
vn 1.0000 -0.0007 0.0007
vn 1.0000 -0.0013 0.0002
vn 0.9230 -0.0036 0.3847
vn 0.7074 0.0059 0.7068
vn 0.7039 -0.0061 0.7102
vn 0.3835 0.0077 0.9235
vn 0.3770 -0.0079 0.9262
vn 0.0011 0.0084 1.0000
vn -0.0068 -0.0085 0.9999
vn -0.3819 0.0075 0.9242
vn -0.3881 -0.0077 0.9216
vn -0.7070 0.0055 0.7072
vn -0.7100 -0.0058 0.7042
vn -0.9240 0.0030 0.3824
vn -0.9246 -0.0034 0.3809
vn -1.0000 0.0007 -0.0007
vn -1.0000 -0.0013 -0.0001
vn -0.9227 0.0003 -0.3854
vn -0.9244 -0.0036 -0.3815
vn -0.7110 0.0003 -0.7032
vn -0.7021 -0.0002 -0.7121
vn -0.3896 0.0009 -0.9210
vn -0.3737 -0.0007 -0.9275
vn -0.0084 0.0011 -1.0000
vn 0.0108 -0.0009 -0.9999
vn 0.3756 0.0008 -0.9268
vn 0.3918 -0.0007 -0.9200
vn 0.7030 0.0003 -0.7112
vn 0.7123 -0.0002 -0.7019
vn 0.9246 0.0024 -0.3808
vn 0.9241 -0.0040 -0.3821
vn 0.0103 0.9999 -0.0031
vn 0.0120 0.9999 0.0010
vn -0.0116 0.9999 0.0034
vn -0.0085 0.9999 0.0067
vn -0.0022 -1.0000 -0.0015
vn -0.0035 -1.0000 -0.0008
vn 0.0030 -1.0000 0.0021
vn 0.0015 -1.0000 0.0023
vn -0.0037 1.0000 -0.0013
vn -0.0017 1.0000 -0.0013
vn 0.0020 1.0000 0.0009
vn 0.0039 1.0000 0.0003
vn 1.0000 -0.0015 -0.0026
vn 1.0000 -0.0025 -0.0019
vn 1.0000 0.0020 0.0024
vn 1.0000 0.0009 0.0029
vn 0.0097 0.9999 0.0053
vn -0.0109 0.9999 -0.0014
vn -0.0039 -1.0000 0.0006
vn 0.0038 -1.0000 0.0009
vn -0.0005 1.0000 -0.0005
vn 0.0006 1.0000 0.0004
vn 1.0000 -0.0003 -0.0023
vn 1.0000 -0.0002 0.0023
vn 0.0048 1.0000 0.0066
vn -0.0069 1.0000 -0.0044
vn -0.0031 -1.0000 0.0019
vn 0.0035 -1.0000 -0.0006
vn -1.0000 -0.0000 -0.0005
vn -1.0000 0.0003 -0.0011
vn -1.0000 -0.0000 0.0011
vn -1.0000 0.0001 0.0005
vn -0.0014 1.0000 -0.0016
vn 0.0015 1.0000 0.0015
vn 1.0000 -0.0007 -0.0011
vn 1.0000 0.0002 0.0012
vn 0.0038 1.0000 -0.0023
vn -0.0039 1.0000 0.0022
vn -0.0015 -1.0000 0.0022
vn 0.0022 -1.0000 -0.0015
vn -1.0000 0.0021 -0.0017
vn -1.0000 -0.0013 0.0024
vn 1.0000 0.0007 0.0007
vn 0.9248 -0.0020 -0.3805
vn 0.9233 0.0018 -0.3841
vn 0.7040 0.0001 -0.7102
vn 0.7112 -0.0003 -0.7030
vn 0.3772 0.0002 -0.9261
vn 0.3898 -0.0008 -0.9209
vn -0.0065 0.0003 -1.0000
vn 0.0084 -0.0011 -1.0000
vn -0.3880 0.0003 -0.9216
vn -0.3757 -0.0009 -0.9267
vn -0.7101 0.0001 -0.7041
vn -0.7032 -0.0003 -0.7110
vn -0.9242 0.0021 -0.3818
vn -0.9250 -0.0003 -0.3799
vn -1.0000 0.0006 0.0005
vn -1.0000 -0.0007 0.0007
vn -0.9232 0.0014 0.3844
vn -0.9237 -0.0030 0.3830
vn 0.9241 0.0047 -0.3821
vn 0.7008 0.0003 -0.7134
vn 0.3717 0.0010 -0.9284
vn -0.0130 0.0013 -0.9999
vn -0.3934 0.0010 -0.9194
vn -0.7131 0.0003 -0.7010
vn -0.9227 0.0034 -0.3855
vn -1.0000 0.0015 -0.0003
vn -0.9233 0.0045 0.3840
vn -0.7046 0.0078 0.7095
vn -0.3777 0.0104 0.9259
vn 0.0062 0.0115 0.9999
vn 0.3878 0.0106 0.9217
vn 0.7098 0.0083 0.7043
vn 0.9245 0.0048 0.3811
vn 1.0000 0.0016 0.0003
vn 0.0032 1.0000 -0.0022
vn -0.0021 1.0000 0.0033
vn -0.0012 -1.0000 0.0007
vn 0.0013 -1.0000 -0.0004
vn -1.0000 -0.0018 -0.0046
vn -1.0000 0.0018 0.0046
vn 0.0052 1.0000 -0.0013
vn -0.0043 1.0000 0.0032
vn 1.0000 0.0007 -0.0010
vn 1.0000 -0.0009 0.0007
vn -0.0002 -1.0000 0.0004
vn 0.0003 -1.0000 -0.0004
vn -1.0000 0.0004 -0.0063
vn -1.0000 -0.0003 0.0063
vn 0.0059 1.0000 0.0008
vn -0.0058 1.0000 0.0014
vn 1.0000 0.0019 -0.0011
vn 1.0000 -0.0021 0.0005
vn 0.0002 -1.0000 0.0014
vn 0.0002 -1.0000 -0.0014
vn -1.0000 0.0027 -0.0055
vn -1.0000 -0.0026 0.0055
vn 0.0047 1.0000 0.0028
vn -0.0054 1.0000 -0.0009
vn 1.0000 0.0030 -0.0004
vn 1.0000 -0.0029 -0.0005
vn 0.0014 -1.0000 0.0022
vn -0.0007 -1.0000 -0.0026
vn -1.0000 0.0034 -0.0032
vn -1.0000 -0.0033 0.0032
vn -0.0000 -1.0000 0.0004
vn -0.0012 -0.9233 0.3842
vn -0.0029 -0.7048 0.7094
vn -0.0044 -0.3788 0.9255
vn -0.0051 0.0046 1.0000
vn -0.0048 0.3867 0.9222
vn -0.0035 0.7095 0.7047
vn -0.0017 0.9246 0.3809
vn -0.0003 1.0000 -0.0006
vn -0.0001 0.9228 -0.3852
vn -0.0050 0.7070 -0.7072
vn -0.0066 0.3824 -0.9240
vn -0.0068 -0.0004 -1.0000
vn -0.0053 -0.3828 -0.9238
vn -0.0003 -0.7092 -0.7051
vn -0.0003 -0.9243 -0.3817
vn 0.0023 1.0000 0.0033
vn -0.0034 1.0000 -0.0022
vn 1.0000 0.0030 0.0009
vn 1.0000 -0.0027 -0.0017
vn 0.0012 -1.0000 -0.0002
vn 0.0031 -1.0000 -0.0020
vn -0.0032 -1.0000 0.0019
vn -0.0012 -1.0000 0.0001
vn -0.0022 -1.0000 -0.0028
vn -1.0000 0.0006 0.0025
vn -1.0000 -0.0015 -0.0021
vn -0.0021 1.0000 -0.0005
vn 1.0000 0.0022 0.0017
vn 1.0000 -0.0016 -0.0022
vn 0.0038 -1.0000 -0.0008
vn -0.0039 -1.0000 0.0003
vn 0.0038 -1.0000 0.0008
vn -0.0035 -1.0000 -0.0019
vn -1.0000 0.0001 0.0006
vn -1.0000 -0.0003 -0.0005
vn 1.0000 0.0011 0.0017
vn 1.0000 -0.0005 -0.0019
vn 0.0070 -1.0000 0.0005
vn -0.0068 -1.0000 -0.0016
vn 0.0036 -1.0000 -0.0007
vn -0.0037 -1.0000 -0.0004
vn -1.0000 0.0006 0.0024
vn -1.0000 -0.0011 -0.0022
vn 1.0000 0.0002 0.0009
vn 1.0000 0.0001 -0.0009
vn 0.0084 -1.0000 0.0038
vn -0.0076 -1.0000 -0.0052
vn 0.9245 -0.0018 -0.3812
vn 1.0000 -0.0006 0.0005
vn 1.0000 0.0003 -0.0004
vn 0.9234 0.0009 -0.3839
vn 0.9231 -0.0014 0.3845
vn 0.9244 0.0006 0.3813
vn 0.7044 -0.0024 0.7098
vn 0.7091 0.0011 0.7051
vn 0.3780 -0.0031 0.9258
vn 0.3861 0.0014 0.9224
vn -0.0056 -0.0033 1.0000
vn 0.0040 0.0015 1.0000
vn -0.3873 -0.0030 0.9220
vn -0.3793 0.0014 0.9253
vn -0.7096 -0.0023 0.7046
vn -0.7052 0.0011 0.7090
vn -0.9246 -0.0014 0.3809
vn -0.9233 0.0007 0.3840
vn -1.0000 -0.0006 -0.0005
vn -1.0000 0.0003 0.0004
vn -0.9235 -0.0020 -0.3835
vn -0.9243 0.0010 -0.3817
vn -0.7041 -0.0001 -0.7101
vn -0.7091 -0.0000 -0.7051
vn -0.3773 -0.0003 -0.9261
vn -0.3863 0.0001 -0.9224
vn 0.0065 -0.0003 -1.0000
vn -0.0043 0.0001 -1.0000
vn 0.3881 -0.0002 -0.9216
vn 0.3790 0.0001 -0.9254
vn 0.7102 -0.0001 -0.7040
vn 0.7050 -0.0000 -0.7092
vn 0.7134 -0.0003 -0.7008
vn 0.9236 -0.0048 -0.3832
vn 0.9236 0.0040 -0.3833
vn 0.7019 0.0002 -0.7123
vn 0.3937 -0.0010 -0.9193
vn 0.3735 0.0007 -0.9276
vn 0.0130 -0.0013 -0.9999
vn -0.0108 0.0009 -0.9999
vn -0.3719 -0.0010 -0.9283
vn -0.3916 0.0007 -0.9201
vn -0.7010 -0.0003 -0.7131
vn -0.7121 0.0002 -0.7021
vn -0.9250 -0.0034 -0.3799
vn -0.9234 0.0036 -0.3838
vn -1.0000 -0.0015 0.0003
vn -1.0000 0.0013 0.0001
vn -0.9244 -0.0045 0.3814
vn -0.9231 0.0034 0.3845
vn -0.7095 -0.0078 0.7046
vn -0.7042 0.0058 0.7100
vn -0.3876 -0.0104 0.9218
vn -0.3772 0.0077 0.9261
vn -0.0062 -0.0115 0.9999
vn 0.0068 0.0085 0.9999
vn 0.3775 -0.0106 0.9259
vn 0.3883 0.0079 0.9215
vn 0.7043 -0.0083 0.7098
vn 0.7102 0.0061 0.7039
vn 0.9232 -0.0048 0.3842
vn 0.9247 0.0036 0.3807
vn 1.0000 -0.0015 -0.0003
vn 1.0000 0.0013 -0.0002
vn 0.0012 -0.9245 0.3812
vn -0.0000 -1.0000 -0.0004
vn -0.0003 -0.9235 0.3835
vn 0.0030 -0.7095 0.7047
vn -0.0008 -0.7057 0.7085
vn 0.0044 -0.3866 0.9223
vn -0.0012 -0.3801 0.9249
vn 0.0051 -0.0046 1.0000
vn -0.0014 0.0031 1.0000
vn 0.0048 0.3787 0.9255
vn -0.0013 0.3854 0.9227
vn 0.0035 0.7047 0.7095
vn -0.0009 0.7087 0.7055
vn 0.0018 0.9231 0.3845
vn -0.0005 0.9244 0.3815
vn 0.0003 1.0000 0.0006
vn -0.0001 1.0000 -0.0004
vn 0.0001 0.9249 -0.3801
vn -0.0000 0.9234 -0.3839
vn 0.0050 0.7072 -0.7070
vn -0.0017 0.7059 -0.7083
vn 0.0066 0.3830 -0.9237
vn -0.0022 0.3805 -0.9248
vn 0.0068 0.0003 -1.0000
vn -0.0023 -0.0024 -1.0000
vn 0.0053 -0.3826 -0.9239
vn -0.0018 -0.3844 -0.9232
vn 0.0003 -0.7051 -0.7092
vn -0.0001 -0.7081 -0.7061
vn 0.0003 -0.9234 -0.3837
vn -0.0001 -0.9241 -0.3821
vn 1.0000 -0.0023 -0.0007
vn 1.0000 0.0022 0.0011
vn -0.0054 1.0000 0.0002
vn 0.0052 1.0000 -0.0015
vn 0.0001 -1.0000 -0.0015
vn -0.0004 -1.0000 0.0014
vn 0.0064 1.0000 -0.0047
vn -0.0042 1.0000 0.0067
vn 1.0000 -0.0008 0.0011
vn 1.0000 0.0011 -0.0007
vn -0.0055 1.0000 0.0024
vn 0.0047 1.0000 -0.0037
vn -0.0038 1.0000 0.0017
vn 0.0041 1.0000 -0.0010
vn 1.0000 -0.0002 0.0005
vn -0.0038 1.0000 0.0040
vn 0.0027 1.0000 -0.0048
vn -0.0055 -1.0000 -0.0040
vn 0.0036 -1.0000 0.0058
vn -0.0014 1.0000 0.0003
vn 0.0014 1.0000 -0.0003
vn -0.0014 1.0000 0.0039
vn 0.0004 1.0000 -0.0042
vn -0.0088 -1.0000 -0.0025
vn 0.0073 -1.0000 0.0055
vn -0.0043 1.0000 0.0002
vn 0.0043 1.0000 -0.0005
vn 0.0002 1.0000 0.0023
vn -0.0008 1.0000 -0.0022
vn -0.0100 -0.9999 0.0010
vn 0.0097 -0.9999 0.0027
vn -0.0075 1.0000 0.0024
vn 0.0072 1.0000 -0.0032
vn 0.0005 1.0000 0.0005
vn -0.0006 1.0000 -0.0004
vn -0.0078 -1.0000 0.0044
vn 0.0089 -1.0000 -0.0012
vn -0.0086 0.9999 0.0065
vn 0.0078 0.9999 -0.0075
vn -0.0039 -1.0000 0.0053
vn 0.0056 -1.0000 -0.0035
vn -0.0063 0.9999 0.0102
vn 0.0050 0.9999 -0.0109
vn -0.0025 -1.0000 -0.0024
vn 0.0027 -1.0000 0.0022
vn -0.0017 0.9999 0.0109
vn 0.0003 0.9999 -0.0111
vn -1.0000 -0.0015 -0.0011
vn -1.0000 0.0017 0.0008
vn 0.0012 -1.0000 -0.0001
vn 0.0024 1.0000 0.0081
vn -0.0033 1.0000 -0.0078
vn -1.0000 -0.0040 -0.0007
vn -1.0000 0.0041 -0.0002
vn -0.0020 -1.0000 0.0030
vn 0.0024 -1.0000 -0.0027
vn 0.0033 1.0000 0.0032
vn -0.0036 1.0000 -0.0029
vn -1.0000 -0.0053 0.0017
vn -1.0000 0.0049 -0.0027
vn -0.0006 -1.0000 0.0065
vn 0.0016 -1.0000 -0.0064
vn -0.0014 1.0000 0.0002
vn -1.0000 -0.0047 0.0043
vn -1.0000 0.0038 -0.0051
vn 0.0002 -1.0000 -0.0004
vn -0.0003 -1.0000 0.0004
vn 0.0030 -1.0000 0.0084
vn -0.0016 -1.0000 -0.0088
vn -1.0000 -0.0025 0.0054
vn -1.0000 0.0015 -0.0058
vn 0.0009 -1.0000 -0.0012
vn -0.0012 -1.0000 0.0009
vn 0.0069 -0.9999 0.0073
vn -0.0056 -0.9999 -0.0083
vn -1.0000 -0.0003 0.0044
vn -1.0000 -0.0005 -0.0044
vn 0.0023 -1.0000 -0.0014
vn -0.0027 -1.0000 0.0007
vn 1.0000 0.0005 -0.0004
vn -0.7046 0.0023 0.7096
vn -0.7072 -0.0055 0.7070
vn -0.3781 0.0030 0.9258
vn -0.3834 -0.0075 0.9235
vn 0.0056 0.0033 1.0000
vn -0.0011 -0.0084 1.0000
vn 0.3874 0.0031 0.9219
vn 0.3818 -0.0077 0.9242
vn 0.7098 0.0024 0.7044
vn 0.7068 -0.0059 0.7074
vn 0.9247 0.0014 0.3808
vn 0.9240 -0.0033 0.3825
vt 0.890021 0.839802
vt 0.904836 0.839802
vt 0.897429 0.877041
vt 0.726576 0.555780
vt 0.748804 0.556327
vt 0.747670 0.608799
vt 0.725725 0.608452
vt 0.865858 0.768220
vt 0.897429 0.789315
vt 0.860189 0.781907
vt 0.876334 0.845471
vt 0.704281 0.555425
vt 0.703728 0.608207
vt 0.876334 0.757745
vt 0.865858 0.855947
vt 0.681979 0.555218
vt 0.681698 0.608067
vt 0.890022 0.752075
vt 0.860189 0.869634
vt 0.659674 0.555128
vt 0.659644 0.608030
vt 0.904836 0.752075
vt 0.860189 0.884449
vt 0.637358 0.555138
vt 0.637566 0.608097
vt 0.918524 0.757745
vt 0.865858 0.898136
vt 0.615023 0.555238
vt 0.615463 0.608266
vt 0.929000 0.768220
vt 0.876334 0.908612
vt 0.592660 0.555422
vt 0.593330 0.608539
vt 0.934669 0.781908
vt 0.890021 0.914282
vt 0.570258 0.555688
vt 0.571160 0.608917
vt 0.934669 0.796723
vt 0.904836 0.914282
vt 0.547804 0.556037
vt 0.548942 0.609406
vt 0.929000 0.810410
vt 0.918524 0.908612
vt 0.525269 0.556471
vt 0.526667 0.610010
vt 0.918524 0.820886
vt 0.928999 0.898136
vt 0.502685 0.557038
vt 0.504326 0.610738
vt 0.904836 0.826555
vt 0.934669 0.884449
vt 0.480030 0.557658
vt 0.481902 0.611583
vt 0.890021 0.826555
vt 0.934669 0.869634
vt 0.457243 0.558396
vt 0.459377 0.612547
vt 0.876334 0.820886
vt 0.928999 0.855947
vt 0.434355 0.559296
vt 0.436747 0.613625
vt 0.865858 0.810410
vt 0.918524 0.845471
vt 0.411784 0.560432
vt 0.414016 0.614792
vt 0.860189 0.796723
vt 0.828050 0.563621
vt 0.846846 0.575529
vt 0.835121 0.590236
vt 0.819585 0.571402
vt 0.868310 0.584080
vt 0.851898 0.607904
vt 0.890445 0.591396
vt 0.868183 0.624367
vt 0.912369 0.599195
vt 0.883412 0.640085
vt 0.933575 0.608596
vt 0.897793 0.655600
vt 0.953658 0.620199
vt 0.911813 0.671492
vt 0.972331 0.634132
vt 0.926155 0.688336
vt 0.792628 0.485027
vt 0.811339 0.471191
vt 0.852979 0.522643
vt 0.838567 0.539460
vt 0.831441 0.459676
vt 0.867052 0.506777
vt 0.852648 0.450354
vt 0.881469 0.491291
vt 0.874561 0.442624
vt 0.896722 0.475607
vt 0.896675 0.435368
vt 0.913018 0.459185
vt 0.918113 0.426869
vt 0.929793 0.441565
vt 0.936885 0.415010
vt 0.945323 0.422784
vt 0.950434 0.398740
vt 0.957297 0.403860
vt 0.807605 0.552426
vt 0.808910 0.576718
vt 0.800005 0.556071
vt 0.817835 0.599268
vt 0.826243 0.621971
vt 0.834298 0.643688
vt 0.842114 0.664246
vt 0.849877 0.684059
vt 0.857779 0.703817
vt 0.866049 0.724324
vt 0.907032 0.555144
vt 0.898734 0.575722
vt 0.914953 0.535346
vt 0.922730 0.515516
vt 0.930558 0.494961
vt 0.938623 0.473265
vt 0.947039 0.450600
vt 0.955970 0.428100
vt 0.964876 0.407505
vt 0.796642 0.579459
vt 0.790702 0.558859
vt 0.798196 0.601542
vt 0.796554 0.624343
vt 0.793791 0.647470
vt 0.791476 0.670783
vt 0.790702 0.694150
vt 0.792135 0.717425
vt 0.796244 0.740193
vt 0.972774 0.568606
vt 0.968984 0.591590
vt 0.974157 0.545354
vt 0.973355 0.522017
vt 0.971029 0.498737
vt 0.968271 0.475646
vt 0.966642 0.452885
vt 0.968210 0.430846
vt 0.974157 0.410295
vt 0.899070 0.381971
vt 0.899125 0.359207
vt 0.977296 0.360255
vt 0.976903 0.383298
vt 0.899235 0.336051
vt 0.977730 0.337151
vt 0.899444 0.312798
vt 0.978220 0.313967
vt 0.899634 0.289480
vt 0.978762 0.290681
vt 0.899878 0.266078
vt 0.979351 0.267272
vt 0.900115 0.242642
vt 0.979966 0.243716
vt 0.900292 0.219117
vt 0.980579 0.219984
vt 0.900488 0.195529
vt 0.981155 0.196052
vt 0.900620 0.171965
vt 0.980882 0.172117
vt 0.900720 0.148467
vt 0.980566 0.148383
vt 0.900760 0.125012
vt 0.980246 0.124823
vt 0.900845 0.101610
vt 0.979953 0.101411
vt 0.900935 0.078314
vt 0.979702 0.078126
vt 0.901008 0.055060
vt 0.979501 0.054941
vt 0.901185 0.031881
vt 0.979357 0.031838
vt 0.901439 0.009144
vt 0.979255 0.008800
vt 0.657880 0.863386
vt 0.657880 0.840900
vt 0.677162 0.844736
vt 0.677162 0.859551
vt 0.599354 0.795620
vt 0.620128 0.804226
vt 0.609205 0.820573
vt 0.595518 0.814903
vt 0.576868 0.795620
vt 0.580703 0.814903
vt 0.556093 0.804226
vt 0.567016 0.820573
vt 0.540193 0.820126
vt 0.556540 0.831048
vt 0.531588 0.840900
vt 0.550871 0.844736
vt 0.531588 0.863386
vt 0.550871 0.859551
vt 0.540193 0.884161
vt 0.556540 0.873238
vt 0.556093 0.900061
vt 0.567016 0.883714
vt 0.576868 0.908666
vt 0.580703 0.889383
vt 0.599354 0.908666
vt 0.595518 0.889383
vt 0.620128 0.900061
vt 0.609206 0.883714
vt 0.636029 0.884161
vt 0.619681 0.873238
vt 0.644634 0.863386
vt 0.625351 0.859551
vt 0.644634 0.840900
vt 0.625351 0.844736
vt 0.636028 0.820126
vt 0.619681 0.831048
vt 0.547252 0.695590
vt 0.532437 0.695590
vt 0.532437 0.618772
vt 0.547252 0.618772
vt 0.666485 0.820126
vt 0.682832 0.831048
vt 0.682385 0.804226
vt 0.693308 0.820573
vt 0.703159 0.795620
vt 0.706995 0.814903
vt 0.725646 0.795620
vt 0.721810 0.814903
vt 0.746420 0.804226
vt 0.735497 0.820573
vt 0.762320 0.820126
vt 0.745973 0.831048
vt 0.770925 0.840900
vt 0.751642 0.844736
vt 0.770925 0.863386
vt 0.751642 0.859551
vt 0.762320 0.884161
vt 0.745973 0.873238
vt 0.746420 0.900061
vt 0.735497 0.883714
vt 0.725646 0.908666
vt 0.721810 0.889383
vt 0.703160 0.908666
vt 0.706995 0.889383
vt 0.682385 0.900061
vt 0.693308 0.883714
vt 0.666485 0.884161
vt 0.682832 0.873238
vt 0.532432 0.702523
vt 0.547247 0.702523
vt 0.547247 0.779341
vt 0.532432 0.779341
vt 0.562067 0.695590
vt 0.562067 0.618772
vt 0.576882 0.695590
vt 0.576882 0.618772
vt 0.591697 0.695590
vt 0.591697 0.618772
vt 0.606512 0.695590
vt 0.606512 0.618772
vt 0.621327 0.695590
vt 0.621327 0.618772
vt 0.636142 0.695590
vt 0.636142 0.618772
vt 0.650957 0.695590
vt 0.650957 0.618772
vt 0.665772 0.695590
vt 0.665772 0.618772
vt 0.680587 0.695590
vt 0.680587 0.618772
vt 0.695402 0.695590
vt 0.695402 0.618772
vt 0.710217 0.695590
vt 0.710217 0.618772
vt 0.725032 0.695590
vt 0.725032 0.618772
vt 0.739847 0.695590
vt 0.739847 0.618772
vt 0.754662 0.695590
vt 0.754662 0.618772
vt 0.769477 0.695590
vt 0.769477 0.618772
vt 0.814488 0.547301
vt 0.562062 0.702523
vt 0.562062 0.779341
vt 0.576877 0.702523
vt 0.576877 0.779341
vt 0.591692 0.702523
vt 0.591692 0.779341
vt 0.606507 0.702523
vt 0.606507 0.779341
vt 0.621322 0.702523
vt 0.621322 0.779341
vt 0.636137 0.702523
vt 0.636137 0.779341
vt 0.650952 0.702523
vt 0.650952 0.779341
vt 0.665767 0.702523
vt 0.665767 0.779341
vt 0.680582 0.702523
vt 0.680582 0.779341
vt 0.695397 0.702523
vt 0.695397 0.779341
vt 0.710212 0.702523
vt 0.710212 0.779341
vt 0.725027 0.702523
vt 0.725027 0.779341
vt 0.739842 0.702523
vt 0.739842 0.779341
vt 0.754657 0.702523
vt 0.754657 0.779341
vt 0.769472 0.702523
vt 0.769472 0.779341
vt 0.770566 0.557081
vt 0.769542 0.609228
vt 0.372713 0.008625
vt 0.395570 0.008679
vt 0.394421 0.493643
vt 0.372049 0.493755
vt 0.349854 0.008571
vt 0.349427 0.493754
vt 0.326992 0.008515
vt 0.326836 0.493755
vt 0.304125 0.008459
vt 0.304292 0.493782
vt 0.281252 0.008403
vt 0.281746 0.493881
vt 0.258371 0.008347
vt 0.259198 0.493978
vt 0.235482 0.008289
vt 0.236636 0.494156
vt 0.212582 0.008232
vt 0.214040 0.494333
vt 0.189670 0.008174
vt 0.191437 0.494549
vt 0.166745 0.008116
vt 0.168804 0.494798
vt 0.143805 0.008057
vt 0.146130 0.495072
vt 0.120849 0.007998
vt 0.123406 0.495360
vt 0.097876 0.007938
vt 0.100620 0.495649
vt 0.074885 0.007878
vt 0.077767 0.495917
vt 0.051876 0.007817
vt 0.054879 0.496127
vt 0.032238 0.496176
vt 0.028848 0.007757
vt 0.147382 0.556436
vt 0.124768 0.556960
vt 0.124515 0.549441
vt 0.147146 0.548946
vt 0.704279 0.548018
vt 0.726646 0.548360
vt 0.546835 0.494974
vt 0.569429 0.494789
vt 0.569570 0.502262
vt 0.546942 0.502462
vt 0.891873 0.289416
vt 0.892092 0.266070
vt 0.102080 0.557556
vt 0.101809 0.550003
vt 0.681939 0.547818
vt 0.592003 0.494641
vt 0.592134 0.502102
vt 0.892297 0.242593
vt 0.079315 0.558241
vt 0.079005 0.550647
vt 0.659602 0.547731
vt 0.840005 0.381104
vt 0.840539 0.358579
vt 0.848227 0.358840
vt 0.847615 0.382685
vt 0.614551 0.494537
vt 0.614664 0.501990
vt 0.892444 0.219073
vt 0.056515 0.559044
vt 0.056035 0.551414
vt 0.637258 0.547738
vt 0.840909 0.335529
vt 0.848606 0.335607
vt 0.513907 0.991383
vt 0.036810 0.991383
vt 0.036810 0.968896
vt 0.513907 0.968896
vt 0.749896 0.494821
vt 0.727276 0.494702
vt 0.729860 0.009494
vt 0.752721 0.009650
vt 0.036810 0.946410
vt 0.513907 0.946410
vt 0.704689 0.494591
vt 0.706995 0.009337
vt 0.036810 0.923924
vt 0.513907 0.923924
vt 0.682138 0.494510
vt 0.684125 0.009179
vt 0.036810 0.901438
vt 0.513907 0.901438
vt 0.659608 0.494472
vt 0.661250 0.009022
vt 0.036810 0.878952
vt 0.513907 0.878952
vt 0.637083 0.494481
vt 0.638367 0.008864
vt 0.036810 0.856466
vt 0.513907 0.856466
vt 0.615475 0.008707
vt 0.036810 0.833979
vt 0.513907 0.833979
vt 0.592572 0.008549
vt 0.036810 0.811493
vt 0.513907 0.811493
vt 0.569656 0.008392
vt 0.081439 0.621958
vt 0.058779 0.622654
vt 0.104058 0.621080
vt 0.126577 0.620269
vt 0.149005 0.619536
vt 0.171355 0.618889
vt 0.169930 0.555979
vt 0.193638 0.618332
vt 0.192423 0.555588
vt 0.215865 0.617866
vt 0.214868 0.555262
vt 0.238046 0.617492
vt 0.237272 0.555006
vt 0.260190 0.617210
vt 0.259630 0.554821
vt 0.282307 0.617017
vt 0.281989 0.554673
vt 0.304402 0.616919
vt 0.304344 0.554658
vt 0.326474 0.616913
vt 0.326698 0.554706
vt 0.348519 0.617001
vt 0.349060 0.554931
vt 0.370519 0.617175
vt 0.371327 0.555327
vt 0.392461 0.617415
vt 0.393133 0.555906
vt 0.036183 0.623395
vt 0.034106 0.560052
vt 0.637175 0.501928
vt 0.892625 0.195547
vt 0.614895 0.547831
vt 0.841077 0.312382
vt 0.848788 0.312406
vt 0.659677 0.501920
vt 0.892776 0.171993
vt 0.592506 0.548005
vt 0.841185 0.289170
vt 0.848922 0.289130
vt 0.682184 0.501965
vt 0.892902 0.148447
vt 0.570079 0.548257
vt 0.841230 0.265821
vt 0.849006 0.265820
vt 0.704714 0.502060
vt 0.892972 0.124993
vt 0.547605 0.548585
vt 0.841195 0.242385
vt 0.849012 0.242382
vt 0.792510 0.031735
vt 0.792643 0.009025
vt 0.842379 0.009317
vt 0.842609 0.031901
vt 0.792271 0.054546
vt 0.842655 0.054939
vt 0.791904 0.077469
vt 0.842550 0.078071
vt 0.791416 0.100531
vt 0.842385 0.101310
vt 0.790815 0.123766
vt 0.842104 0.124663
vt 0.790140 0.147210
vt 0.841797 0.148080
vt 0.789452 0.170913
vt 0.841547 0.171623
vt 0.788827 0.194919
vt 0.841309 0.195261
vt 0.789150 0.218926
vt 0.841218 0.218872
vt 0.789546 0.242628
vt 0.789932 0.266074
vt 0.790242 0.289308
vt 0.790446 0.312364
vt 0.790529 0.335282
vt 0.790480 0.358081
vt 0.790325 0.380765
vt 0.727297 0.502197
vt 0.893087 0.101644
vt 0.054849 0.503803
vt 0.031029 0.504001
vt 0.525099 0.548993
vt 0.849074 0.218825
vt 0.750016 0.502357
vt 0.893195 0.078305
vt 0.395570 0.501269
vt 0.372212 0.501288
vt 0.502491 0.549529
vt 0.849195 0.195242
vt 0.893276 0.055022
vt 0.349487 0.501252
vt 0.479758 0.550110
vt 0.849406 0.171685
vt 0.893461 0.031697
vt 0.326890 0.501230
vt 0.773380 0.502473
vt 0.772235 0.549717
vt 0.749133 0.548898
vt 0.408816 0.503962
vt 0.432736 0.503832
vt 0.433860 0.551620
vt 0.410035 0.552668
vt 0.455886 0.503613
vt 0.456919 0.550794
vt 0.478775 0.503345
vt 0.501574 0.503017
vt 0.524290 0.502749
vt 0.077946 0.503538
vt 0.100831 0.503229
vt 0.123615 0.502907
vt 0.146330 0.502592
vt 0.169713 0.548512
vt 0.168990 0.502298
vt 0.192225 0.548139
vt 0.191607 0.502034
vt 0.214693 0.547829
vt 0.214184 0.501807
vt 0.237126 0.547584
vt 0.236710 0.501625
vt 0.259560 0.547405
vt 0.259247 0.501437
vt 0.281955 0.547258
vt 0.281777 0.501342
vt 0.304337 0.547242
vt 0.304312 0.501243
vt 0.326719 0.547282
vt 0.349096 0.547498
vt 0.371609 0.547889
vt 0.394729 0.548544
vt 0.032367 0.552428
vt 0.850301 0.031614
vt 0.850018 0.007792
vt 0.893759 0.007757
vt 0.850354 0.054879
vt 0.850264 0.078115
vt 0.850127 0.101376
vt 0.849881 0.124689
vt 0.849615 0.148152
vt 0.891705 0.312727
vt 0.891505 0.336004
vt 0.891399 0.359358
vt 0.891362 0.383298
vt 0.524176 0.495232
vt 0.501447 0.495469
vt 0.478639 0.495753
vt 0.455730 0.495972
vt 0.432794 0.496126
vt 0.410111 0.496093
vt 0.772273 0.494823
vt 0.775581 0.009806
vt 0.036810 0.789007
vt 0.513907 0.789007
vt 0.546727 0.008234
vt 0.036810 0.766521
vt 0.513907 0.766521
vt 0.523783 0.008076
vt 0.036810 0.744035
vt 0.513907 0.744035
vt 0.500821 0.007917
vt 0.036810 0.721549
vt 0.513907 0.721549
vt 0.477843 0.007757
vt 0.036810 0.699062
vt 0.513907 0.699062
vt 0.454832 0.007818
vt 0.036810 0.676576
vt 0.513907 0.676576
vt 0.431823 0.007879
vt 0.036810 0.654090
vt 0.513907 0.654090
vt 0.408816 0.007940
vt 0.036810 0.631604
vt 0.513907 0.631604
s 1
usemtl Rusty_pipe
f 1/1/1 2/2/1 3/3/1
f 181/4/2 180/5/3 4/6/4 12/7/5
f 8/8/6 9/9/6 10/10/6
f 11/11/1 1/1/1 3/3/1
f 182/12/7 181/4/2 12/7/5 16/13/8
f 14/14/6 9/9/6 8/8/6
f 15/15/1 11/11/1 3/3/1
f 183/16/9 182/12/7 16/13/8 20/17/10
f 18/18/6 9/9/6 14/14/6
f 19/19/1 15/15/1 3/3/1
f 184/20/11 183/16/9 20/17/10 24/21/12
f 22/22/6 9/9/6 18/18/6
f 23/23/1 19/19/1 3/3/1
f 185/24/13 184/20/11 24/21/12 28/25/14
f 26/26/6 9/9/6 22/22/6
f 27/27/1 23/23/1 3/3/1
f 186/28/15 185/24/13 28/25/14 32/29/16
f 30/30/6 9/9/6 26/26/6
f 31/31/1 27/27/1 3/3/1
f 187/32/17 186/28/15 32/29/16 36/33/18
f 34/34/6 9/9/6 30/30/6
f 35/35/1 31/31/1 3/3/1
f 188/36/19 187/32/17 36/33/18 40/37/20
f 38/38/6 9/9/6 34/34/6
f 39/39/1 35/35/1 3/3/1
f 189/40/21 188/36/19 40/37/20 44/41/22
f 42/42/6 9/9/6 38/38/6
f 43/43/1 39/39/1 3/3/1
f 190/44/23 189/40/21 44/41/22 48/45/24
f 46/46/6 9/9/6 42/42/6
f 47/47/1 43/43/1 3/3/1
f 191/48/25 190/44/23 48/45/24 52/49/26
f 50/50/6 9/9/6 46/46/6
f 51/51/1 47/47/1 3/3/1
f 192/52/27 191/48/25 52/49/26 56/53/28
f 54/54/6 9/9/6 50/50/6
f 55/55/1 51/51/1 3/3/1
f 193/56/29 192/52/27 56/53/28 60/57/30
f 58/58/6 9/9/6 54/54/6
f 59/59/1 55/55/1 3/3/1
f 194/60/31 193/56/29 60/57/30 64/61/32
f 62/62/6 9/9/6 58/58/6
f 63/63/1 59/59/1 3/3/1
f 179/64/33 194/60/31 64/61/32 7/65/6
f 66/66/6 9/9/6 62/62/6
f 2/2/1 63/63/1 3/3/1
f 10/10/6 9/9/6 66/66/6
f 5/67/34 13/68/35 69/69/36 68/70/37
f 13/68/35 17/71/38 70/72/39 69/69/36
f 17/71/38 21/73/40 71/74/41 70/72/39
f 21/73/40 25/75/42 72/76/43 71/74/41
f 25/75/42 29/77/44 73/78/45 72/76/43
f 29/77/44 33/79/46 74/80/47 73/78/45
f 33/79/46 37/81/48 75/82/49 74/80/47
f 37/83/48 41/84/50 76/85/51 75/86/49
f 41/84/50 45/87/52 77/88/53 76/85/51
f 45/87/52 49/89/54 78/90/55 77/88/53
f 49/89/54 53/91/56 79/92/57 78/90/55
f 53/91/56 57/93/58 80/94/59 79/92/57
f 57/93/58 61/95/60 81/96/61 80/94/59
f 61/95/60 65/97/62 82/98/63 81/96/61
f 65/97/62 6/99/64 67/100/65 82/98/63
f 67/101/65 68/70/37 84/102/66 83/103/67
f 68/70/37 69/69/36 85/104/68 84/102/66
f 69/69/36 70/72/39 86/105/69 85/104/68
f 70/72/39 71/74/41 87/106/70 86/105/69
f 71/74/41 72/76/43 88/107/71 87/106/70
f 72/76/43 73/78/45 89/108/72 88/107/71
f 73/78/45 74/80/47 90/109/73 89/108/72
f 74/80/47 75/82/49 91/110/74 90/109/73
f 75/86/49 76/85/51 92/111/75 91/112/74
f 76/85/51 77/88/53 93/113/76 92/111/75
f 77/88/53 78/90/55 94/114/77 93/113/76
f 78/90/55 79/92/57 95/115/78 94/114/77
f 79/92/57 80/94/59 96/116/79 95/115/78
f 80/94/59 81/96/61 97/117/80 96/116/79
f 81/96/61 82/98/63 98/118/81 97/117/80
f 82/98/63 67/100/65 83/119/67 98/118/81
f 83/103/67 84/102/66 100/120/82 99/121/83
f 84/102/66 85/104/68 101/122/84 100/120/82
f 85/104/68 86/105/69 102/123/85 101/122/84
f 86/105/69 87/106/70 103/124/86 102/123/85
f 87/106/70 88/107/71 104/125/87 103/124/86
f 88/107/71 89/108/72 105/126/88 104/125/87
f 89/108/72 90/109/73 106/127/89 105/126/88
f 90/109/73 91/110/74 107/128/90 106/127/89
f 91/112/74 92/111/75 108/129/91 107/130/90
f 92/111/75 93/113/76 109/131/92 108/129/91
f 93/113/76 94/114/77 110/132/93 109/131/92
f 94/114/77 95/115/78 111/133/94 110/132/93
f 95/115/78 96/116/79 112/134/95 111/133/94
f 96/116/79 97/117/80 113/135/96 112/134/95
f 97/117/80 98/118/81 114/136/97 113/135/96
f 98/118/81 83/119/67 99/137/83 114/136/97
f 259/138/1 260/139/98 116/140/99 115/141/1
f 260/139/98 261/142/100 117/143/101 116/140/99
f 261/142/100 262/144/102 118/145/103 117/143/101
f 262/144/102 263/146/104 119/147/10 118/145/103
f 263/146/104 264/148/105 120/149/106 119/147/10
f 264/148/105 265/150/107 121/151/108 120/149/106
f 265/150/107 266/152/109 122/153/110 121/151/108
f 266/152/109 267/154/111 123/155/112 122/153/110
f 267/154/111 268/156/113 124/157/114 123/155/112
f 268/156/113 269/158/115 125/159/116 124/157/114
f 269/158/115 270/160/117 126/161/118 125/159/116
f 270/160/117 271/162/119 127/163/26 126/161/118
f 271/162/119 272/164/120 128/165/121 127/163/26
f 272/164/120 273/166/122 129/167/123 128/165/121
f 273/166/122 274/168/124 130/169/125 129/167/123
f 274/168/124 259/170/1 115/171/1 130/169/125
f 115/172/6 116/173/6 148/174/6 147/175/6
f 12/176/1 4/177/1 131/178/1 133/179/1
f 16/180/1 12/176/1 133/179/1 134/181/1
f 20/182/1 16/180/1 134/181/1 135/183/1
f 24/184/1 20/182/1 135/183/1 136/185/1
f 28/186/1 24/184/1 136/185/1 137/187/1
f 32/188/1 28/186/1 137/187/1 138/189/1
f 36/190/1 32/188/1 138/189/1 139/191/1
f 40/192/1 36/190/1 139/191/1 140/193/1
f 44/194/1 40/192/1 140/193/1 141/195/1
f 48/196/1 44/194/1 141/195/1 142/197/1
f 52/198/1 48/196/1 142/197/1 143/199/1
f 56/200/1 52/198/1 143/199/1 144/201/1
f 60/202/1 56/200/1 144/201/1 145/203/1
f 64/204/1 60/202/1 145/203/1 146/205/1
f 7/206/1 64/204/1 146/205/1 132/207/1
f 131/208/20 132/209/18 2/210/18 1/211/20
f 116/173/6 117/212/6 149/213/6 148/174/6
f 117/212/6 118/214/6 150/215/6 149/213/6
f 118/214/6 119/216/6 151/217/6 150/215/6
f 119/216/6 120/218/6 152/219/6 151/217/6
f 120/218/6 121/220/6 153/221/6 152/219/6
f 121/220/6 122/222/6 154/223/6 153/221/6
f 122/222/6 123/224/6 155/225/6 154/223/6
f 123/224/6 124/226/6 156/227/6 155/225/6
f 124/226/6 125/228/6 157/229/6 156/227/6
f 125/228/6 126/230/6 158/231/6 157/229/6
f 126/230/6 127/232/6 159/233/6 158/231/6
f 127/232/6 128/234/6 160/235/6 159/233/6
f 128/234/6 129/236/6 161/237/6 160/235/6
f 129/236/6 130/238/6 162/239/6 161/237/6
f 130/238/6 115/172/6 147/175/6 162/239/6
f 147/240/112 148/241/114 8/242/114 10/243/112
f 133/244/22 131/208/20 1/211/20 11/245/22
f 134/246/24 133/244/22 11/245/22 15/247/24
f 135/248/26 134/246/24 15/247/24 19/249/26
f 136/250/28 135/248/26 19/249/26 23/251/28
f 137/252/30 136/250/28 23/251/28 27/253/30
f 138/254/32 137/252/30 27/253/30 31/255/32
f 139/256/6 138/254/32 31/255/32 35/257/6
f 140/258/4 139/256/6 35/257/6 39/259/4
f 141/260/5 140/258/4 39/259/4 43/261/5
f 142/262/8 141/260/5 43/261/5 47/263/8
f 143/264/10 142/262/8 47/263/8 51/265/10
f 144/266/12 143/264/10 51/265/10 55/267/12
f 145/268/14 144/266/12 55/267/12 59/269/14
f 146/270/16 145/268/14 59/269/14 63/271/16
f 132/272/18 146/270/16 63/271/16 2/273/18
f 6/274/64 5/67/34 68/70/37 67/101/65
f 148/241/114 149/275/116 14/276/116 8/242/114
f 149/275/116 150/277/118 18/278/118 14/276/116
f 150/277/118 151/279/26 22/280/26 18/278/118
f 151/279/26 152/281/121 26/282/121 22/280/26
f 152/281/121 153/283/123 30/284/123 26/282/121
f 153/283/123 154/285/125 34/286/125 30/284/123
f 154/285/125 155/287/1 38/288/1 34/286/125
f 155/287/1 156/289/99 42/290/99 38/288/1
f 156/289/99 157/291/101 46/292/101 42/290/99
f 157/291/101 158/293/103 50/294/103 46/292/101
f 158/293/103 159/295/10 54/296/10 50/294/103
f 159/295/10 160/297/106 58/298/106 54/296/10
f 160/297/106 161/299/108 62/300/108 58/298/106
f 161/299/108 162/301/110 66/302/110 62/300/108
f 162/301/110 147/303/112 10/304/112 66/302/110
f 180/5/3 179/305/33 7/306/6 4/6/4
f 4/177/1 7/206/1 132/207/1 131/178/1
f 386/307/126 178/308/127 227/309/128 242/310/129
f 384/311/130 386/307/126 242/310/129 241/312/131
f 382/313/132 384/311/130 241/312/131 240/314/133
f 380/315/134 382/313/132 240/314/133 239/316/135
f 378/317/136 380/315/134 239/316/135 238/318/137
f 376/319/138 378/317/136 238/318/137 237/320/139
f 374/321/140 376/319/138 237/320/139 236/322/141
f 372/323/142 374/321/140 236/322/141 235/324/143
f 163/325/144 372/323/142 235/324/143 234/326/145
f 165/327/146 163/325/144 234/326/145 233/328/147
f 167/329/148 165/327/146 233/328/147 232/330/149
f 169/331/150 167/329/148 232/330/149 231/332/151
f 171/333/152 169/331/150 231/332/151 230/334/153
f 173/335/154 171/333/152 230/334/153 229/336/155
f 175/337/156 173/335/154 229/336/155 228/338/157
f 227/339/128 178/340/127 175/337/156 228/338/157
f 215/341/158 214/342/159 314/343/160 316/344/161
f 181/4/162 182/12/163 290/345/164 291/346/165
f 204/347/166 203/348/167 300/349/168 301/350/169
f 264/148/170 263/146/171 359/351/172 360/352/173
f 214/342/159 213/353/174 312/354/175 314/343/160
f 182/12/163 183/16/176 289/355/177 290/345/164
f 203/348/167 202/356/178 299/357/179 300/349/168
f 265/150/180 264/148/170 360/352/173 361/358/181
f 213/353/174 212/359/182 310/360/183 312/354/175
f 183/16/176 184/20/184 288/361/185 289/355/177
f 243/362/186 244/363/187 354/364/188 339/365/189
f 202/356/178 201/366/190 298/367/191 299/357/179
f 266/152/192 265/150/180 361/358/181 362/368/193
f 212/359/182 211/369/194 308/370/195 310/360/183
f 184/20/184 185/24/196 287/371/197 288/361/185
f 244/363/187 245/372/198 353/373/199 354/364/188
f 178/374/127 177/375/200 176/376/201 175/377/156
f 195/378/202 196/379/203 174/380/204 176/381/201
f 176/376/201 174/382/204 173/383/154 175/377/156
f 196/379/203 197/384/205 172/385/206 174/380/204
f 174/382/204 172/386/206 171/387/152 173/383/154
f 197/384/205 198/388/207 170/389/208 172/385/206
f 172/386/206 170/390/208 169/391/150 171/387/152
f 198/388/207 199/392/209 168/393/210 170/389/208
f 170/390/208 168/394/210 167/395/148 169/391/150
f 199/392/209 200/396/211 166/397/212 168/393/210
f 168/394/210 166/398/212 165/399/146 167/395/148
f 200/396/211 201/366/213 164/400/214 166/397/212
f 166/398/212 164/401/214 163/402/144 165/399/146
f 201/366/213 202/356/215 371/403/216 164/400/214
f 164/401/214 371/404/216 372/405/142 163/402/144
f 202/356/215 203/348/217 373/406/218 371/403/216
f 13/407/35 5/408/34 211/369/219 212/359/220
f 17/409/38 13/407/35 212/359/220 213/353/221
f 21/410/40 17/409/38 213/353/221 214/342/222
f 25/411/42 21/410/40 214/342/222 215/341/223
f 29/412/44 25/411/42 215/341/223 216/413/224
f 33/414/46 29/412/44 216/413/224 217/415/225
f 37/416/48 33/414/46 217/415/225 218/417/226
f 41/418/50 37/416/48 218/417/226 219/419/227
f 45/420/52 41/418/50 219/419/227 220/421/228
f 49/422/54 45/420/52 220/421/228 221/423/229
f 53/424/56 49/422/54 221/423/229 222/425/230
f 57/426/58 53/424/56 222/425/230 223/427/231
f 61/428/60 57/426/58 223/427/231 224/429/232
f 65/430/62 61/428/60 224/429/232 225/431/233
f 6/432/64 65/430/62 225/431/233 226/433/234
f 5/408/34 6/434/64 226/435/234 211/369/219
f 201/366/190 200/396/235 297/436/236 298/367/191
f 267/154/6 266/152/192 362/368/193 363/437/6
f 185/24/196 186/28/237 286/438/238 287/371/197
f 245/372/198 246/439/239 352/440/240 353/373/199
f 200/396/235 199/392/241 296/441/242 297/436/236
f 268/156/243 267/154/6 363/437/6 364/442/244
f 186/28/237 187/32/245 285/443/246 286/438/238
f 246/439/239 247/444/247 351/445/248 352/440/240
f 199/392/241 198/388/249 295/446/250 296/441/242
f 269/158/251 268/156/243 364/442/244 365/447/252
f 187/32/245 188/36/253 284/448/254 285/443/246
f 247/444/247 248/449/255 350/450/256 351/445/248
f 198/388/249 197/384/257 294/451/258 295/446/250
f 270/160/259 269/158/251 365/447/252 366/452/260
f 188/36/253 189/40/261 283/453/262 284/448/254
f 248/449/255 249/454/263 349/455/264 350/450/256
f 114/456/97 99/457/83 243/458/265 258/459/266
f 113/460/96 114/456/97 258/459/266 257/461/267
f 112/462/95 113/460/96 257/461/267 256/463/268
f 111/464/94 112/462/95 256/463/268 255/465/269
f 110/466/93 111/464/94 255/465/269 254/467/270
f 109/468/92 110/466/93 254/467/270 253/469/271
f 108/470/91 109/468/92 253/469/271 252/471/272
f 107/472/90 108/470/91 252/471/272 251/473/273
f 106/474/89 107/472/90 251/473/273 250/475/274
f 105/476/88 106/474/89 250/475/274 249/454/275
f 104/477/87 105/476/88 249/454/275 248/449/276
f 103/478/86 104/477/87 248/449/276 247/444/277
f 102/479/85 103/478/86 247/444/277 246/439/278
f 101/480/84 102/479/85 246/439/278 245/372/279
f 100/481/82 101/480/84 245/372/279 244/363/280
f 99/482/83 100/481/82 244/363/280 243/362/265
f 197/384/257 196/379/281 293/483/282 294/451/258
f 271/162/283 270/160/259 366/452/260 367/484/284
f 227/339/285 228/338/286 307/485/287 338/486/288
f 189/40/261 190/44/164 282/487/289 283/453/262
f 249/454/263 250/475/290 348/488/291 349/455/264
f 196/379/281 195/378/168 292/489/292 293/483/282
f 272/164/293 271/162/283 367/484/284 368/490/294
f 242/310/295 227/309/285 338/491/288 335/492/296
f 190/44/164 191/48/297 281/493/298 282/487/289
f 250/475/290 251/473/299 347/494/300 348/488/291
f 273/166/301 272/164/293 368/490/294 369/495/302
f 241/312/303 242/310/295 335/492/296 333/496/304
f 191/48/297 192/52/305 280/497/306 281/493/298
f 251/473/299 252/471/307 346/498/308 347/494/300
f 274/168/309 273/166/301 369/495/302 370/499/310
f 240/314/311 241/312/303 333/496/304 331/500/312
f 292/489/313 275/501/314 276/502/315 277/503/316
f 275/504/314 306/505/317 278/506/318 276/507/315
f 306/505/317 305/508/319 279/509/320 278/506/318
f 305/508/319 304/510/321 280/497/322 279/509/320
f 304/510/321 303/511/323 281/493/324 280/497/322
f 303/511/323 302/512/325 282/487/326 281/493/324
f 302/512/325 301/350/327 283/453/328 282/487/326
f 301/350/327 300/349/329 284/448/330 283/453/328
f 300/349/329 299/357/331 285/443/332 284/448/330
f 299/357/331 298/367/333 286/438/334 285/443/332
f 298/367/333 297/436/335 287/371/336 286/438/334
f 297/436/335 296/441/337 288/361/338 287/371/336
f 296/441/337 295/446/339 289/355/340 288/361/338
f 295/446/339 294/451/341 290/345/342 289/355/340
f 294/451/341 293/483/343 291/346/344 290/345/342
f 293/483/343 292/489/313 277/503/316 291/346/344
f 310/360/345 308/370/346 307/485/347 309/513/348
f 312/354/349 310/360/345 309/513/348 311/514/350
f 314/343/351 312/354/349 311/514/350 313/515/352
f 316/344/353 314/343/351 313/515/352 315/516/354
f 318/517/355 316/344/353 315/516/354 317/518/356
f 320/519/357 318/517/355 317/518/356 319/520/358
f 322/521/359 320/519/357 319/520/358 321/522/360
f 324/523/361 322/521/359 321/522/360 323/524/362
f 326/525/363 324/523/361 323/524/362 325/526/364
f 328/527/365 326/525/363 325/526/364 327/528/366
f 330/529/367 328/527/365 327/528/366 329/530/368
f 332/531/369 330/529/367 329/530/368 331/500/370
f 334/532/371 332/531/369 331/500/370 333/496/372
f 336/533/373 334/532/371 333/496/372 335/492/374
f 337/534/375 336/533/373 335/492/374 338/491/376
f 308/370/346 337/535/375 338/486/376 307/485/347
f 340/536/377 339/537/378 355/538/1 370/499/379
f 341/539/380 340/536/377 370/499/379 369/495/381
f 342/540/382 341/539/380 369/495/381 368/490/383
f 343/541/384 342/540/382 368/490/383 367/484/385
f 344/542/386 343/541/384 367/484/385 366/452/387
f 345/543/388 344/542/386 366/452/387 365/447/389
f 346/498/390 345/543/388 365/447/389 364/442/391
f 347/494/392 346/498/390 364/442/391 363/437/393
f 348/488/394 347/494/392 363/437/393 362/368/395
f 349/455/396 348/488/394 362/368/395 361/358/397
f 350/450/398 349/455/396 361/358/397 360/352/399
f 351/445/400 350/450/398 360/352/399 359/351/401
f 352/440/402 351/445/400 359/351/401 358/544/403
f 353/373/404 352/440/402 358/544/403 357/545/405
f 354/364/406 353/373/404 357/545/405 356/546/407
f 339/365/378 354/364/406 356/546/407 355/547/1
f 263/146/171 262/144/408 358/544/409 359/351/172
f 205/548/410 204/347/166 301/350/169 302/512/411
f 180/5/412 181/4/162 291/346/165 277/503/413
f 216/413/414 215/341/158 316/344/161 318/517/415
f 262/144/408 261/142/416 357/545/417 358/544/409
f 206/549/418 205/548/410 302/512/411 303/511/419
f 217/415/420 216/413/414 318/517/415 320/519/421
f 261/142/416 260/139/422 356/546/315 357/545/417
f 207/550/423 206/549/418 303/511/419 304/510/424
f 228/338/286 229/336/425 309/513/426 307/485/287
f 218/417/427 217/415/420 320/519/421 322/521/428
f 260/139/422 259/138/6 355/547/6 356/546/315
f 208/551/429 207/550/423 304/510/424 305/508/430
f 229/336/425 230/334/431 311/514/432 309/513/426
f 219/419/433 218/417/427 322/521/428 324/523/434
f 209/552/435 208/551/429 305/508/430 306/505/436
f 230/334/431 231/332/437 313/515/438 311/514/432
f 220/421/439 219/419/433 324/523/434 326/525/440
f 210/553/441 209/552/435 306/505/436 275/504/442
f 231/332/437 232/330/443 315/516/444 313/515/438
f 221/423/445 220/421/439 326/525/440 328/527/446
f 195/378/168 210/554/441 275/501/442 292/489/292
f 232/330/443 233/328/447 317/518/448 315/516/444
f 222/425/449 221/423/445 328/527/446 330/529/450
f 233/328/447 234/326/451 319/520/452 317/518/448
f 223/427/453 222/425/449 330/529/450 332/531/454
f 258/459/455 243/458/186 339/537/189 340/536/456
f 234/326/451 235/324/288 321/522/457 319/520/452
f 224/429/458 223/427/453 332/531/454 334/532/459
f 257/461/460 258/459/455 340/536/456 341/539/461
f 235/324/288 236/322/462 323/524/463 321/522/457
f 225/431/464 224/429/458 334/532/459 336/533/465
f 256/463/466 257/461/460 341/539/461 342/540/467
f 236/322/462 237/320/468 325/526/469 323/524/463
f 226/433/428 225/431/464 336/533/465 337/534/470
f 255/465/471 256/463/466 342/540/467 343/541/472
f 179/305/473 180/5/412 277/503/413 276/502/474
f 237/320/468 238/318/475 327/528/476 325/526/469
f 211/369/194 226/435/428 337/535/470 308/370/195
f 254/467/477 255/465/471 343/541/472 344/542/478
f 194/60/479 179/64/473 276/507/474 278/506/480
f 238/318/475 239/316/481 329/530/482 327/528/476
f 253/469/483 254/467/477 344/542/478 345/543/484
f 193/56/485 194/60/479 278/506/480 279/509/486
f 239/316/481 240/314/311 331/500/312 329/530/482
f 259/170/6 274/168/309 370/499/310 355/538/6
f 252/471/307 253/469/483 345/543/484 346/498/308
f 192/52/305 193/56/485 279/509/486 280/497/306
f 177/555/200 210/554/487 195/378/202 176/381/201
f 371/404/216 373/556/218 374/557/140 372/405/142
f 203/348/217 204/347/488 375/558/489 373/406/218
f 373/556/218 375/559/489 376/560/138 374/557/140
f 204/347/488 205/548/490 377/561/491 375/558/489
f 375/559/489 377/562/491 378/563/136 376/560/138
f 205/548/490 206/549/492 379/564/493 377/561/491
f 377/562/491 379/565/493 380/566/134 378/563/136
f 206/549/492 207/550/494 381/567/495 379/564/493
f 379/565/493 381/568/495 382/569/132 380/566/134
f 207/550/494 208/551/496 383/570/497 381/567/495
f 381/568/495 383/571/497 384/572/130 382/569/132
f 208/551/496 209/552/498 385/573/499 383/570/497
f 383/571/497 385/574/499 386/575/126 384/572/130
f 209/552/498 210/553/487 177/576/200 385/573/499
f 385/574/499 177/577/200 178/578/127 386/575/126
