# Blender 4.4.3
# www.blender.org
mtllib Baseball_bat.mtl
o Baseball_bat
v 0.000000 0.000000 -0.017718
v -0.000000 0.861384 -0.015709
v 0.008859 0.000000 -0.015344
v 0.007854 0.861384 -0.013604
v 0.015344 0.000000 -0.008859
v 0.013604 0.861384 -0.007854
v 0.017718 0.000000 0.000000
v 0.015709 0.861384 0.000000
v 0.015344 0.000000 0.008859
v 0.013604 0.861384 0.007854
v 0.008859 0.000000 0.015344
v 0.007854 0.861384 0.013604
v 0.000000 0.000000 0.017718
v -0.000000 0.861384 0.015709
v -0.008859 0.000000 0.015344
v -0.007854 0.861384 0.013604
v -0.015344 0.000000 0.008859
v -0.013604 0.861384 0.007854
v -0.017718 0.000000 0.000000
v -0.015709 0.861384 0.000000
v -0.015344 0.000000 -0.008859
v -0.013604 0.861384 -0.007854
v -0.008859 0.000000 -0.015344
v -0.007854 0.861384 -0.013604
v 0.000000 0.286508 -0.014271
v 0.007135 0.286508 -0.012359
v 0.012359 0.286508 -0.007135
v 0.014271 0.286508 0.000000
v 0.012359 0.286508 0.007135
v 0.007135 0.286508 0.012359
v 0.000000 0.286508 0.014271
v -0.007135 0.286508 0.012359
v -0.012359 0.286508 0.007135
v -0.014271 0.286508 0.000000
v -0.012359 0.286508 -0.007135
v -0.007135 0.286508 -0.012359
v 0.000000 0.846252 -0.033500
v 0.016750 0.846252 -0.029012
v 0.029012 0.846252 -0.016750
v 0.033500 0.846252 0.000000
v 0.029012 0.846252 0.016750
v 0.016750 0.846252 0.029012
v 0.000000 0.846252 0.033500
v -0.016750 0.846252 0.029012
v -0.029012 0.846252 0.016750
v -0.033500 0.846252 0.000000
v -0.029012 0.846252 -0.016750
v -0.016750 0.846252 -0.029012
v -0.000000 0.855484 -0.029918
v 0.014959 0.855484 -0.025909
v 0.025909 0.855484 -0.014959
v 0.029918 0.855484 0.000000
v 0.025909 0.855484 0.014959
v 0.014959 0.855484 0.025909
v -0.000000 0.855484 0.029918
v -0.014959 0.855484 0.025909
v -0.025909 0.855484 0.014959
v -0.029918 0.855484 0.000000
v -0.025909 0.855484 -0.014959
v -0.014959 0.855484 -0.025909
v 0.013308 0.018185 -0.023454
v 0.013289 0.006961 -0.023017
v 0.023050 0.018185 -0.013541
v 0.023017 0.006961 -0.013289
v 0.026616 0.018185 0.000000
v 0.026578 0.006961 -0.000000
v 0.023050 0.018185 0.013541
v 0.023017 0.006961 0.013289
v 0.013308 0.018185 0.023454
v 0.013289 0.006961 0.023017
v 0.000000 0.018185 0.027083
v -0.000000 0.006961 0.026578
v -0.013308 0.018185 0.023454
v -0.013289 0.006961 0.023017
v -0.023050 0.018185 0.013541
v -0.023017 0.006961 0.013289
v -0.026616 0.018185 0.000000
v -0.026578 0.006961 -0.000000
v -0.023050 0.018185 -0.013541
v -0.023017 0.006961 -0.013289
v -0.013308 0.018185 -0.023454
v -0.013289 0.006961 -0.023017
v -0.000000 0.006961 -0.026578
v 0.000000 0.018185 -0.027083
v -0.000000 0.051247 -0.014271
v 0.007135 0.051247 -0.012359
v 0.012359 0.051247 -0.007135
v 0.014271 0.051247 0.000000
v 0.012359 0.051247 0.007135
v 0.007135 0.051247 0.012359
v -0.000000 0.051247 0.014271
v -0.007135 0.051247 0.012359
v -0.012359 0.051247 0.007135
v -0.014271 0.051247 0.000000
v -0.012359 0.051247 -0.007135
v -0.007135 0.051247 -0.012359
v 0.016034 0.660654 -0.027771
v 0.027771 0.660654 -0.016034
v 0.032067 0.660654 0.000000
v 0.027771 0.660654 0.016034
v 0.016034 0.660654 0.027771
v -0.000000 0.660654 0.032067
v -0.016034 0.660654 0.027771
v -0.027771 0.660654 0.016034
v -0.032067 0.660654 0.000000
v -0.027771 0.660654 -0.016034
v -0.016034 0.660654 -0.027771
v -0.000000 0.660654 -0.032067
v 0.000019 0.862449 0.007854
v 0.000022 0.862449 -0.007854
v 0.000021 0.863312 0.000000
v 0.000008 0.000000 -0.008859
v 0.000008 0.000000 0.008859
v 0.000008 0.000000 0.000000
v -0.007507 0.053058 0.013002
v -0.007507 0.284698 0.013002
v -0.000000 0.284698 -0.015014
v -0.000000 0.053058 -0.015014
v 0.007507 0.053058 -0.013002
v 0.007507 0.284698 -0.013002
v 0.015014 0.053058 0.000000
v 0.015014 0.284698 0.000000
v 0.013002 0.053058 0.007507
v 0.013002 0.284698 0.007507
v 0.007507 0.284698 0.013002
v 0.007507 0.053058 0.013002
v -0.015014 0.053058 0.000000
v -0.015014 0.284698 0.000000
v -0.007507 0.053058 -0.013002
v -0.007507 0.284698 -0.013002
v -0.013002 0.284698 0.007507
v -0.013002 0.053058 0.007507
v -0.013002 0.053058 -0.007507
v -0.013002 0.284698 -0.007507
v 0.013002 0.284698 -0.007507
v 0.013002 0.053058 -0.007507
v -0.000000 0.053058 0.015014
v -0.000000 0.284698 0.015014
vn -0.0000 0.6678 -0.7444
vn -0.0000 0.9633 -0.2683
vn 0.1374 0.9615 -0.2379
vn 0.3722 0.6678 -0.6446
vn 0.2319 0.9618 -0.1455
vn 0.6446 0.6678 -0.3722
vn 0.2678 0.9635 -0.0000
vn 0.7444 0.6678 -0.0000
vn 0.2319 0.9618 0.1455
vn 0.6446 0.6678 0.3722
vn 0.1373 0.9615 0.2379
vn 0.3722 0.6678 0.6446
vn -0.0000 0.9633 0.2683
vn -0.0000 0.6678 0.7444
vn -0.1373 0.9616 0.2378
vn -0.3722 0.6678 0.6446
vn -0.2318 0.9618 0.1455
vn -0.6446 0.6678 0.3722
vn -0.2677 0.9635 -0.0000
vn -0.7444 0.6678 -0.0000
vn -0.2318 0.9618 -0.1455
vn -0.6446 0.6678 -0.3722
vn 0.0002 0.9963 -0.0857
vn -0.1373 0.9616 -0.2378
vn -0.3722 0.6678 -0.6446
vn -0.0000 -1.0000 -0.0000
vn -0.0000 0.3608 -0.9326
vn 0.4712 0.3582 -0.8060
vn 0.4693 0.3582 -0.8071
vn -0.4998 -0.0275 -0.8657
vn -0.4923 0.1750 -0.8527
vn -0.0000 0.1750 -0.9846
vn -0.0000 -0.0275 -0.9996
vn -0.8657 -0.0275 -0.4998
vn -0.8527 0.1750 -0.4923
vn -0.9996 -0.0275 -0.0000
vn -0.9846 0.1750 -0.0000
vn -0.8657 -0.0275 0.4998
vn -0.8527 0.1750 0.4923
vn -0.4998 -0.0275 0.8657
vn -0.4923 0.1750 0.8527
vn -0.0000 -0.0275 0.9996
vn -0.0000 0.1750 0.9846
vn 0.4998 -0.0275 0.8657
vn 0.4923 0.1750 0.8527
vn 0.8657 -0.0275 0.4998
vn 0.8527 0.1750 0.4923
vn 0.9996 -0.0275 -0.0000
vn 0.9846 0.1750 -0.0000
vn 0.8657 -0.0275 -0.4998
vn 0.8527 0.1750 -0.4923
vn 0.4998 -0.0275 -0.8657
vn 0.4923 0.1750 -0.8527
vn -0.4555 -0.4260 -0.7816
vn -0.5000 -0.0332 -0.8654
vn -0.0000 -0.0422 -0.9991
vn -0.0000 -0.4302 -0.9027
vn -0.3089 -0.7863 -0.5351
vn -0.0000 -0.7863 -0.6178
vn -0.7886 -0.4179 -0.4511
vn -0.8661 -0.0153 -0.4997
vn -0.5351 -0.7863 -0.3089
vn -0.9104 -0.4138 -0.0000
vn -1.0000 -0.0062 -0.0000
vn -0.6178 -0.7863 -0.0000
vn -0.7886 -0.4179 0.4511
vn -0.8661 -0.0153 0.4997
vn -0.5351 -0.7863 0.3089
vn -0.4555 -0.4260 0.7816
vn -0.5000 -0.0332 0.8654
vn -0.3089 -0.7863 0.5351
vn -0.0000 -0.4302 0.9027
vn -0.0000 -0.0422 0.9991
vn -0.0000 -0.7863 0.6178
vn 0.4555 -0.4260 0.7816
vn 0.5000 -0.0332 0.8654
vn 0.3089 -0.7863 0.5351
vn 0.7886 -0.4179 0.4511
vn 0.8661 -0.0153 0.4997
vn 0.5351 -0.7863 0.3089
vn 0.9104 -0.4138 -0.0000
vn 1.0000 -0.0062 -0.0000
vn 0.6178 -0.7863 -0.0000
vn 0.7886 -0.4179 -0.4511
vn 0.8661 -0.0153 -0.4997
vn 0.5351 -0.7863 -0.3089
vn 0.4555 -0.4260 -0.7816
vn 0.5000 -0.0332 -0.8654
vn 0.3089 -0.7863 -0.5351
vn 0.8117 0.3530 -0.4653
vn 0.8128 0.3529 -0.4634
vn 0.9366 0.3503 -0.0000
vn 0.8128 0.3529 0.4634
vn 0.8117 0.3530 0.4653
vn 0.4712 0.3582 0.8060
vn 0.4693 0.3582 0.8071
vn -0.0000 0.3608 0.9326
vn -0.4712 0.3582 0.8060
vn -0.4693 0.3582 0.8071
vn -0.8128 0.3529 0.4634
vn -0.8117 0.3530 0.4653
vn -0.9366 0.3503 -0.0000
vn -0.8128 0.3529 -0.4634
vn -0.8117 0.3530 -0.4653
vn -0.4712 0.3582 -0.8060
vn -0.4693 0.3582 -0.8071
vn -0.8650 -0.0475 -0.4994
vn -0.4994 -0.0475 -0.8650
vn -0.0000 -0.0475 -0.9989
vn 0.4994 -0.0475 -0.8650
vn 0.8650 -0.0475 -0.4994
vn 0.9989 -0.0475 -0.0000
vn 0.8650 -0.0475 0.4994
vn 0.4994 -0.0475 0.8650
vn -0.0000 -0.0475 0.9989
vn -0.4994 -0.0475 0.8650
vn -0.8650 -0.0475 0.4994
vn -0.9989 -0.0475 -0.0000
vn 0.0001 1.0000 -0.0000
vn 0.0001 0.9963 0.0857
vn -0.8012 -0.3797 0.4625
vn -0.9251 -0.3797 -0.0000
vn 0.4625 -0.3797 0.8012
vn -0.0000 -0.3797 0.9251
vn 0.8012 -0.3797 -0.4625
vn 0.9251 -0.3797 -0.0000
vn -0.8012 -0.3797 -0.4625
vn -0.4625 -0.3797 0.8012
vn 0.8012 -0.3797 0.4625
vn -0.4625 -0.3797 -0.8012
vn -0.0000 -0.3797 -0.9251
vn 0.4625 -0.3797 -0.8012
vn 0.4625 0.3797 -0.8012
vn 0.8012 0.3797 -0.4625
vn 0.5000 -0.0000 -0.8660
vn 0.8660 -0.0000 -0.5000
vn -0.4625 0.3797 -0.8012
vn -0.0000 0.3797 -0.9251
vn -0.5000 -0.0000 -0.8660
vn -0.0000 -0.0000 -1.0000
vn 0.8012 0.3797 0.4625
vn 0.4625 0.3797 0.8012
vn 0.8660 -0.0000 0.5000
vn 0.5000 -0.0000 0.8660
vn -0.4625 0.3797 0.8012
vn -0.8012 0.3797 0.4625
vn -0.5000 -0.0000 0.8660
vn -0.8660 -0.0000 0.5000
vn -0.8012 0.3797 -0.4625
vn -0.8660 -0.0000 -0.5000
vn 0.9251 0.3797 -0.0000
vn 1.0000 -0.0000 -0.0000
vn -0.0000 0.3797 0.9251
vn -0.0000 -0.0000 1.0000
vn -0.9251 0.3797 -0.0000
vn -1.0000 -0.0000 -0.0000
vt 0.500241 0.369588
vt 0.462044 0.374212
vt 0.455738 0.354891
vt 0.486484 0.335190
vt 0.441398 0.340773
vt 0.461351 0.309965
vt 0.421996 0.334659
vt 0.426608 0.295784
vt 0.112741 0.055417
vt 0.116722 0.094353
vt 0.097166 0.100218
vt 0.077830 0.069042
vt 0.082744 0.114346
vt 0.052379 0.093965
vt 0.076136 0.133572
vt 0.037922 0.128184
vt 0.038276 0.135585
vt 0.081231 0.153309
vt 0.049761 0.170604
vt 0.094215 0.168419
vt 0.072686 0.197400
vt 0.113262 0.176091
vt 0.106148 0.213892
vt 0.431207 0.454214
vt 0.424467 0.416002
vt 0.443422 0.408819
vt 0.464846 0.438254
vt 0.441729 0.374752
vt 0.456695 0.393882
vt 0.488110 0.411579
vt 0.499974 0.376600
vt 0.040800 0.312986
vt 0.062754 0.312986
vt 0.062362 0.349948
vt 0.047222 0.334340
vt 0.792643 0.894198
vt 0.792643 0.809340
vt 0.811157 0.807693
vt 0.824555 0.891676
vt 0.531043 0.615933
vt 0.983881 0.619552
vt 0.983458 0.661859
vt 0.530638 0.656431
vt 0.531285 0.575433
vt 0.984134 0.577242
vt 0.531366 0.534932
vt 0.984219 0.534932
vt 0.531285 0.494432
vt 0.984134 0.492623
vt 0.531043 0.453932
vt 0.983881 0.450313
vt 0.530638 0.413434
vt 0.983458 0.408005
vt 0.530072 0.372938
vt 0.982866 0.365700
vt 0.529343 0.332444
vt 0.982106 0.323396
vt 0.528453 0.291953
vt 0.981176 0.281097
vt 0.529343 0.737421
vt 0.982106 0.746468
vt 0.981176 0.788768
vt 0.528453 0.777912
vt 0.530072 0.696927
vt 0.982866 0.704165
vt 0.508229 0.423897
vt 0.523877 0.383327
vt 0.479621 0.456774
vt 0.440849 0.477665
vt 0.057705 0.215737
vt 0.096164 0.237198
vt 0.029566 0.182665
vt 0.014373 0.142052
vt 0.033000 0.080235
vt 0.014392 0.119649
vt 0.064358 0.049344
vt 0.104648 0.031093
vt 0.475016 0.290367
vt 0.435013 0.271600
vt 0.505905 0.321620
vt 0.523877 0.361502
vt 0.756212 0.918916
vt 0.760731 0.891676
vt 0.792643 0.921762
vt 0.023879 0.348630
vt 0.012960 0.316455
vt 0.720905 0.910836
vt 0.728873 0.884206
vt 0.047568 0.373003
vt 0.687352 0.899058
vt 0.696937 0.871675
vt 0.083576 0.356788
vt 0.079542 0.384642
vt 0.527110 0.798926
vt 0.535077 0.825555
vt 0.503141 0.838086
vt 0.493557 0.810703
vt 0.475221 0.587359
vt 0.490015 0.610408
vt 0.457733 0.621878
vt 0.453954 0.594042
vt 0.562416 0.790846
vt 0.566936 0.818086
vt 0.490536 0.571834
vt 0.513867 0.586228
vt 0.598848 0.787999
vt 0.598848 0.815563
vt 0.496974 0.550441
vt 0.524798 0.553801
vt 0.635279 0.790846
vt 0.630760 0.818086
vt 0.490627 0.529057
vt 0.514072 0.514926
vt 0.524798 0.547138
vt 0.670586 0.798926
vt 0.662619 0.825555
vt 0.475464 0.513443
vt 0.490448 0.490541
vt 0.704139 0.810703
vt 0.694554 0.838086
vt 0.454263 0.506604
vt 0.458271 0.478808
vt 0.864382 0.910836
vt 0.856414 0.884206
vt 0.888350 0.871675
vt 0.897934 0.899058
vt 0.062441 0.276004
vt 0.047587 0.252945
vt 0.079883 0.241394
vt 0.083722 0.269257
vt 0.829075 0.918916
vt 0.047253 0.291627
vt 0.023898 0.277325
vt 0.829059 0.803021
vt 0.845729 0.795579
vt 0.651933 0.914182
vt 0.635263 0.906740
vt 0.617362 0.902069
vt 0.598848 0.900422
vt 0.580334 0.902069
vt 0.562432 0.906740
vt 0.545762 0.914182
vt 0.739558 0.795579
vt 0.756228 0.803021
vt 0.774129 0.807693
vt 0.235047 0.041087
vt 0.212572 0.954720
vt 0.172099 0.953226
vt 0.217036 0.040422
vt 0.012960 0.309502
vt 0.199046 0.039314
vt 0.131675 0.950737
vt 0.091325 0.947255
vt 0.181089 0.037765
vt 0.051072 0.942782
vt 0.163175 0.035774
vt 0.010942 0.937320
vt 0.145316 0.033343
vt 0.360822 0.033343
vt 0.495197 0.937320
vt 0.455067 0.942782
vt 0.342963 0.035774
vt 0.414814 0.947255
vt 0.325050 0.037765
vt 0.374464 0.950737
vt 0.307093 0.039314
vt 0.334040 0.953226
vt 0.289103 0.040422
vt 0.293567 0.954720
vt 0.271092 0.041087
vt 0.253070 0.955218
vt 0.253069 0.041308
vt 0.116722 0.135207
vt 0.096492 0.134362
vt 0.421577 0.375362
vt 0.453281 0.550295
vt 0.475037 0.550370
vt 0.084522 0.313018
vt 0.420054 0.133523
vt 0.420041 0.152464
vt 0.415174 0.152462
vt 0.415191 0.133520
vt 0.420066 0.076702
vt 0.420059 0.095642
vt 0.415196 0.095640
vt 0.415210 0.076709
vt 0.419974 0.247170
vt 0.419841 0.266149
vt 0.414956 0.265623
vt 0.415162 0.247128
vt 0.420037 0.171406
vt 0.415174 0.171405
vt 0.420057 0.114583
vt 0.415194 0.114571
vt 0.419940 0.038803
vt 0.420059 0.057773
vt 0.415250 0.057809
vt 0.415073 0.039330
vt 0.420023 0.190348
vt 0.415159 0.190355
vt 0.420008 0.209292
vt 0.419998 0.228235
vt 0.415140 0.228224
vt 0.415143 0.209290
vt 0.990110 0.228251
vt 0.990064 0.247143
vt 0.985256 0.247178
vt 0.985251 0.228247
vt 0.990125 0.190368
vt 0.990111 0.209309
vt 0.985250 0.209307
vt 0.985260 0.190366
vt 0.990136 0.057809
vt 0.990173 0.076702
vt 0.985310 0.076706
vt 0.985325 0.057773
vt 0.990155 0.114588
vt 0.990141 0.133541
vt 0.985277 0.133538
vt 0.985290 0.114596
vt 0.990126 0.171436
vt 0.985263 0.171423
vt 0.990301 0.039327
vt 0.985439 0.038803
vt 0.990171 0.095652
vt 0.985304 0.095650
vt 0.990136 0.152494
vt 0.985271 0.152481
vt 0.990242 0.265622
vt 0.985375 0.266150
s 1
usemtl Baseball_bat
f 49/1/1 2/2/2 4/3/3 50/4/4
f 50/4/4 4/3/3 6/5/5 51/6/6
f 51/6/6 6/5/5 8/7/7 52/8/8
f 52/9/8 8/10/7 10/11/9 53/12/10
f 53/12/10 10/11/9 12/13/11 54/14/12
f 54/14/12 12/13/11 14/15/13 55/16/14
f 55/17/14 14/15/13 16/18/15 56/19/16
f 56/19/16 16/18/15 18/20/17 57/21/18
f 57/21/18 18/20/17 20/22/19 58/23/20
f 58/24/20 20/25/19 22/26/21 59/27/22
f 4/3/3 2/2/2 110/28/23 6/5/5
f 59/27/22 22/26/21 24/29/24 60/30/25
f 60/30/25 24/29/24 2/2/2 49/31/1
f 1/32/26 112/33/26 21/34/26 23/35/26
f 84/36/27 85/37/27 86/38/28 61/39/29
f 107/40/30 48/41/31 37/42/32 108/43/33
f 106/44/34 47/45/35 48/41/31 107/40/30
f 105/46/36 46/47/37 47/45/35 106/44/34
f 104/48/38 45/49/39 46/47/37 105/46/36
f 103/50/40 44/51/41 45/49/39 104/48/38
f 102/52/42 43/53/43 44/51/41 103/50/40
f 101/54/44 42/55/45 43/53/43 102/52/42
f 100/56/46 41/57/47 42/55/45 101/54/44
f 99/58/48 40/59/49 41/57/47 100/56/46
f 98/60/50 39/61/51 40/62/49 99/63/48
f 97/64/52 38/65/53 39/61/51 98/60/50
f 108/43/33 37/42/32 38/65/53 97/64/52
f 48/66/31 60/30/25 49/31/1 37/67/32
f 47/68/35 59/27/22 60/30/25 48/66/31
f 46/69/37 58/24/20 59/27/22 47/68/35
f 45/70/39 57/21/18 58/23/20 46/71/37
f 44/72/41 56/19/16 57/21/18 45/70/39
f 43/73/43 55/17/14 56/19/16 44/72/41
f 42/74/45 54/14/12 55/16/14 43/75/43
f 41/76/47 53/12/10 54/14/12 42/74/45
f 40/77/49 52/9/8 53/12/10 41/76/47
f 39/78/51 51/6/6 52/8/8 40/79/49
f 38/80/53 50/4/4 51/6/6 39/78/51
f 37/81/32 49/1/1 50/4/4 38/80/53
f 82/82/54 81/83/55 84/36/56 83/84/57
f 23/35/58 82/85/54 83/86/57 1/32/59
f 80/87/60 79/88/61 81/83/55 82/82/54
f 21/34/62 80/89/60 82/85/54 23/35/58
f 78/90/63 77/91/64 79/88/61 80/87/60
f 19/92/65 78/93/63 80/89/60 21/34/62
f 76/94/66 75/95/67 77/96/64 78/97/63
f 17/98/68 76/99/66 78/100/63 19/101/65
f 74/102/69 73/103/70 75/95/67 76/94/66
f 15/104/71 74/105/69 76/99/66 17/98/68
f 72/106/72 71/107/73 73/103/70 74/102/69
f 13/108/74 72/109/72 74/105/69 15/104/71
f 70/110/75 69/111/76 71/107/73 72/106/72
f 11/112/77 70/113/75 72/114/72 13/108/74
f 68/115/78 67/116/79 69/111/76 70/110/75
f 9/117/80 68/118/78 70/113/75 11/112/77
f 66/119/81 65/120/82 67/116/79 68/115/78
f 7/121/83 66/122/81 68/118/78 9/117/80
f 64/123/84 63/124/85 65/125/82 66/126/81
f 5/127/86 64/128/84 66/129/81 7/130/83
f 62/131/87 61/39/88 63/124/85 64/123/84
f 3/132/89 62/133/87 64/128/84 5/127/86
f 83/84/57 84/36/56 61/39/88 62/131/87
f 63/124/90 87/134/91 88/135/92 65/125/92
f 65/120/92 88/136/92 89/137/93 67/116/94
f 67/116/94 89/137/93 90/138/95 69/111/96
f 69/111/96 90/138/95 91/139/97 71/107/97
f 71/107/97 91/139/97 92/140/98 73/103/99
f 73/103/99 92/140/98 93/141/100 75/95/101
f 75/95/101 93/141/100 94/142/102 77/96/102
f 77/91/102 94/143/102 95/144/103 79/88/104
f 79/88/104 95/144/103 96/145/105 81/83/106
f 81/83/106 96/145/105 85/37/27 84/36/27
f 35/146/107 106/147/34 107/148/30 36/149/108
f 1/32/59 83/150/57 62/133/87 3/132/89
f 25/151/109 108/152/33 97/153/52 26/154/110
f 26/154/110 97/153/52 98/155/50 27/156/111
f 27/156/111 98/155/50 99/157/48 28/158/112
f 28/159/112 99/160/48 100/161/46 29/162/113
f 29/162/113 100/161/46 101/163/44 30/164/114
f 30/164/114 101/163/44 102/165/42 31/166/115
f 31/166/115 102/165/42 103/167/40 32/168/116
f 32/168/116 103/167/40 104/169/38 33/170/117
f 33/170/117 104/169/38 105/171/36 34/172/118
f 34/172/118 105/171/36 106/147/34 35/146/107
f 8/10/7 111/173/119 109/174/120 10/11/9
f 6/5/5 110/28/23 111/175/119 8/7/7
f 10/11/9 109/174/120 14/15/13 12/13/11
f 14/15/13 109/174/120 18/20/17 16/18/15
f 110/28/23 2/2/2 24/29/24 22/26/21
f 109/174/120 111/173/119 20/22/19 18/20/17
f 111/175/119 110/28/23 22/26/21 20/25/19
f 19/101/26 114/176/26 113/177/26 17/98/26
f 21/34/26 112/33/26 114/178/26 19/92/26
f 17/98/26 113/177/26 13/108/26 15/104/26
f 112/33/26 1/32/26 3/132/26 5/127/26
f 13/108/26 113/177/26 9/117/26 11/112/26
f 114/178/26 112/33/26 5/127/26 7/130/26
f 113/177/26 114/176/26 7/121/26 9/117/26
f 132/179/121 127/180/122 94/181/122 93/182/121
f 126/183/123 137/184/124 91/185/124 90/186/123
f 136/187/125 121/188/126 88/189/126 87/190/125
f 127/180/122 133/191/127 95/192/127 94/181/122
f 137/184/124 115/193/128 92/194/128 91/185/124
f 121/195/126 123/196/129 89/197/129 88/198/126
f 133/191/127 129/199/130 96/200/130 95/192/127
f 118/201/131 119/202/132 86/203/132 85/204/131
f 115/193/128 132/179/121 93/182/121 92/194/128
f 123/196/129 126/183/123 90/186/123 89/197/129
f 129/199/130 118/201/131 85/204/131 96/200/130
f 119/202/132 136/187/125 87/190/125 86/203/132
f 61/39/29 86/38/28 87/134/91 63/124/90
f 107/148/30 108/152/33 25/151/109 36/149/108
f 26/205/133 27/206/134 135/207/134 120/208/133
f 120/208/135 135/207/136 136/187/136 119/202/135
f 36/209/137 25/210/138 117/211/138 130/212/137
f 130/212/139 117/211/140 118/201/140 129/199/139
f 29/213/141 30/214/142 125/215/142 124/216/141
f 124/216/143 125/215/144 126/183/144 123/196/143
f 32/217/145 33/218/146 131/219/146 116/220/145
f 116/220/147 131/219/148 132/179/148 115/193/147
f 25/210/138 26/205/133 120/208/133 117/211/138
f 117/211/140 120/208/135 119/202/135 118/201/140
f 35/221/149 36/209/137 130/212/137 134/222/149
f 134/222/150 130/212/139 129/199/139 133/191/150
f 28/223/151 29/213/141 124/216/141 122/224/151
f 122/224/152 124/216/143 123/196/143 121/195/152
f 31/225/153 32/217/145 116/220/145 138/226/153
f 138/226/154 116/220/147 115/193/147 137/184/154
f 34/227/155 35/221/149 134/222/149 128/228/155
f 128/228/156 134/222/150 133/191/150 127/180/156
f 27/206/134 28/229/151 122/230/151 135/207/134
f 135/207/136 122/230/152 121/188/152 136/187/136
f 30/214/142 31/225/153 138/226/153 125/215/142
f 125/215/144 138/226/154 137/184/154 126/183/144
f 33/218/146 34/227/155 128/228/155 131/219/146
f 131/219/148 128/228/156 127/180/156 132/179/148
